<svg xmlns="http://www.w3.org/2000/svg" xmlns:xlink="http://www.w3.org/1999/xlink" width="500" zoomAndPan="magnify" viewBox="0 0 375 374.999991" height="500" preserveAspectRatio="xMidYMid meet" version="1.0"><defs><g/><clipPath id="ef9bc6817f"><path d="M 17 206 L 134.230469 206 L 134.230469 210 L 17 210 Z M 17 206 " clip-rule="nonzero"/></clipPath><clipPath id="c245787952"><path d="M 0.140625 204.703125 L 134.230469 204.703125 L 134.230469 213.152344 L 0.140625 213.152344 Z M 0.140625 204.703125 " clip-rule="nonzero"/></clipPath><clipPath id="a7c4dc2848"><path d="M 241.707031 208 L 359 208 L 359 212 L 241.707031 212 Z M 241.707031 208 " clip-rule="nonzero"/></clipPath><clipPath id="e8587ed008"><path d="M 241.707031 205.050781 L 375 205.050781 L 375 213.5 L 241.707031 213.5 Z M 241.707031 205.050781 " clip-rule="nonzero"/></clipPath></defs><g clip-path="url(#ef9bc6817f)"><path fill="#ffffff" d="M 17.933594 209.761719 L 276.636719 209.761719 L 276.636719 206.859375 Z M 17.933594 209.761719 " fill-opacity="1" fill-rule="nonzero"/></g><g clip-path="url(#c245787952)"><path fill="#ffffff" d="M 296.367188 222.585938 L 278.425781 222.585938 L 275.660156 217.035156 L 0.140625 217.035156 L 273.894531 217.035156 L 276.976562 214.722656 L 279.730469 219.492188 L 291.488281 219.492188 L 281.679688 201.738281 L 36.503906 201.738281 L 283 199.4375 L 296.367188 222.585938 " fill-opacity="1" fill-rule="nonzero"/></g><g clip-path="url(#a7c4dc2848)"><path fill="#ffffff" d="M 358.007812 208.441406 L 99.300781 208.441406 L 99.300781 211.34375 Z M 358.007812 208.441406 " fill-opacity="1" fill-rule="nonzero"/></g><g clip-path="url(#e8587ed008)"><path fill="#ffffff" d="M 79.570312 195.617188 L 97.515625 195.617188 L 100.277344 201.167969 L 375.796875 201.167969 L 102.046875 201.167969 L 98.960938 203.480469 L 96.207031 198.710938 L 84.449219 198.710938 L 94.257812 216.464844 L 339.4375 216.464844 L 92.941406 218.765625 L 79.570312 195.617188 " fill-opacity="1" fill-rule="nonzero"/></g><g fill="#ffffff" fill-opacity="1"><g transform="translate(25.643823, 185.742321)"><g><path d="M 34.828125 -50.921875 C 40.554688 -50.628906 44.9375 -49.1875 47.96875 -46.59375 C 51.007812 -44 52.019531 -40.320312 51 -35.5625 L 50.78125 -34.6875 L 35.703125 -34.6875 L 35.78125 -34.96875 C 35.96875 -35.550781 36.023438 -36.109375 35.953125 -36.640625 C 35.878906 -37.179688 35.707031 -37.671875 35.4375 -38.109375 C 35.175781 -38.546875 34.773438 -38.921875 34.234375 -39.234375 C 33.703125 -39.546875 33.050781 -39.773438 32.28125 -39.921875 Z M 26.296875 -50.5625 L 23.09375 -36.796875 C 22.90625 -35.921875 23.160156 -35.164062 23.859375 -34.53125 C 24.566406 -33.90625 25.5625 -33.421875 26.84375 -33.078125 C 28.132812 -32.734375 29.601562 -32.367188 31.25 -31.984375 C 32.90625 -31.597656 34.617188 -31.222656 36.390625 -30.859375 C 38.160156 -30.492188 39.832031 -29.929688 41.40625 -29.171875 C 42.988281 -28.421875 44.363281 -27.546875 45.53125 -26.546875 C 46.695312 -25.554688 47.523438 -24.210938 48.015625 -22.515625 C 48.503906 -20.816406 48.503906 -18.847656 48.015625 -16.609375 C 46.847656 -11.554688 44.476562 -7.617188 40.90625 -4.796875 C 37.34375 -1.984375 32.910156 -0.210938 27.609375 0.515625 L 30.96875 -13.984375 C 31.15625 -14.816406 30.894531 -15.535156 30.1875 -16.140625 C 29.488281 -16.742188 28.484375 -17.210938 27.171875 -17.546875 C 25.859375 -17.890625 24.363281 -18.253906 22.6875 -18.640625 C 21.019531 -19.035156 19.296875 -19.4375 17.515625 -19.84375 C 15.742188 -20.257812 14.066406 -20.859375 12.484375 -21.640625 C 10.910156 -22.421875 9.550781 -23.367188 8.40625 -24.484375 C 7.269531 -25.597656 6.484375 -27.03125 6.046875 -28.78125 C 5.609375 -30.53125 5.65625 -32.59375 6.1875 -34.96875 C 7.257812 -39.539062 9.59375 -43.097656 13.1875 -45.640625 C 16.78125 -48.191406 21.148438 -49.832031 26.296875 -50.5625 Z M 21.71875 -10.640625 L 19.09375 0.796875 C 16.90625 0.703125 14.9375 0.519531 13.1875 0.25 C 11.4375 -0.0078125 9.785156 -0.429688 8.234375 -1.015625 C 6.679688 -1.597656 5.378906 -2.335938 4.328125 -3.234375 C 3.285156 -4.140625 2.410156 -5.234375 1.703125 -6.515625 C 1.003906 -7.804688 0.65625 -9.3125 0.65625 -11.03125 C 0.65625 -12.757812 0.847656 -14.738281 1.234375 -16.96875 L 16.46875 -16.96875 C 16.03125 -15.375 16.015625 -14.113281 16.421875 -13.1875 C 16.835938 -12.257812 17.457031 -11.625 18.28125 -11.28125 C 19.113281 -10.945312 20.257812 -10.734375 21.71875 -10.640625 Z M 21.71875 -10.640625 "/></g></g></g><g fill="#ffffff" fill-opacity="1"><g transform="translate(78.245432, 185.742321)"><g><path d="M 27.984375 -50.125 L 16.46875 0 L 0.359375 0 L 11.875 -50.125 Z M 27.984375 -50.125 "/></g></g></g><g fill="#ffffff" fill-opacity="1"><g transform="translate(106.586185, 185.742321)"><g><path d="M 70.234375 -50.125 L 58.734375 0 L 42.78125 0 L 46.921875 -18.0625 C 47.265625 -19.476562 47.65625 -20.984375 48.09375 -22.578125 C 48.53125 -24.179688 48.953125 -25.640625 49.359375 -26.953125 C 49.773438 -28.265625 50.164062 -29.453125 50.53125 -30.515625 C 50.894531 -31.585938 51.195312 -32.441406 51.4375 -33.078125 L 51.734375 -33.953125 L 51.4375 -33.953125 L 34.390625 0 L 21.796875 0 L 20.265625 -33.875 L 19.96875 -33.875 C 19.582031 -28.382812 18.804688 -23.113281 17.640625 -18.0625 L 13.484375 0 L -1.3125 0 L 10.203125 -50.125 L 32.9375 -50.125 L 33.890625 -21.203125 L 34.171875 -21.203125 L 48.3125 -50.125 Z M 70.234375 -50.125 "/></g></g></g><g fill="#ffffff" fill-opacity="1"><g transform="translate(175.361694, 185.742321)"><g><path d="M 14.0625 -0.515625 C 9.101562 -2.066406 5.6875 -4.90625 3.8125 -9.03125 C 1.945312 -13.164062 1.765625 -18.507812 3.265625 -25.0625 C 4.773438 -31.625 7.425781 -36.96875 11.21875 -41.09375 C 15.007812 -45.21875 19.742188 -48.054688 25.421875 -49.609375 Z M 31.40625 -38.828125 L 34.171875 -51 L 36.28125 -51 C 44.925781 -51 51.09375 -48.785156 54.78125 -44.359375 C 58.476562 -39.941406 59.351562 -33.507812 57.40625 -25.0625 C 55.46875 -16.613281 51.628906 -10.175781 45.890625 -5.75 C 40.160156 -1.332031 32.972656 0.875 24.328125 0.875 C 23.359375 0.875 22.65625 0.847656 22.21875 0.796875 L 24.984375 -11.296875 C 25.859375 -11.191406 26.566406 -11.140625 27.109375 -11.140625 C 30.554688 -11.140625 33.429688 -12.179688 35.734375 -14.265625 C 38.046875 -16.359375 39.613281 -19.179688 40.4375 -22.734375 L 41.453125 -27.390625 C 42.285156 -30.941406 42.03125 -33.757812 40.6875 -35.84375 C 39.351562 -37.9375 36.960938 -38.984375 33.515625 -38.984375 C 32.984375 -38.984375 32.28125 -38.929688 31.40625 -38.828125 Z M 31.40625 -38.828125 "/></g></g></g><g fill="#ffffff" fill-opacity="1"><g transform="translate(236.050258, 185.742321)"><g><path d="M 61.140625 -50.125 L 49.625 0 L 35.5625 0 L 26.3125 -14.578125 L 31.984375 -39.34375 L 40.65625 -25.421875 L 46.34375 -50.125 Z M 20.109375 -24.328125 L 14.5 0 L -0.28125 0 L 11.21875 -50.125 L 25.28125 -50.125 L 25.875 -49.25 Z M 20.109375 -24.328125 "/></g></g></g><g fill="#ffffff" fill-opacity="1"><g transform="translate(296.738822, 185.742321)"><g><path d="M 15.8125 0 L -0.28125 0 L 11.21875 -50.125 L 27.328125 -50.125 Z M 24.265625 0 L 27.03125 -12.015625 L 46.34375 -12.015625 L 43.578125 0 Z M 35.78125 -50.125 L 54.578125 -50.125 L 51.8125 -38.109375 L 33.015625 -38.109375 Z M 28.78125 -19.671875 L 31.40625 -31.1875 L 46.265625 -31.1875 L 43.640625 -19.671875 Z M 28.78125 -19.671875 "/></g></g></g><g fill="#ffffff" fill-opacity="1"><g transform="translate(112.506248, 123.472609)"><g><path d="M 0.765625 0 L 2.9375 -10.796875 L 4.3125 -10.796875 L 2.15625 0 Z M 0.765625 0 "/></g></g></g><g fill="#ffffff" fill-opacity="1"><g transform="translate(122.363782, 123.472609)"><g/></g></g><g fill="#ffffff" fill-opacity="1"><g transform="translate(131.511908, 123.472609)"><g><path d="M 3.765625 0 L 1.625 -10.796875 L 2.984375 -10.796875 L 3.859375 -6.25 L 4.703125 -1.96875 L 7.21875 -6.25 L 9.953125 -10.796875 L 11.46875 -10.796875 L 5.03125 0 Z M 3.765625 0 "/></g></g></g><g fill="#ffffff" fill-opacity="1"><g transform="translate(147.214305, 123.472609)"><g><path d="M 0.765625 0 L 2.9375 -10.796875 L 9.484375 -10.796875 L 9.234375 -9.53125 L 4.0625 -9.53125 L 3.375 -6.125 L 8.15625 -6.125 L 7.90625 -4.875 L 3.125 -4.875 L 2.421875 -1.265625 L 7.734375 -1.265625 L 7.5 0 Z M 0.765625 0 "/></g></g></g><g fill="#ffffff" fill-opacity="1"><g transform="translate(161.837181, 123.472609)"><g><path d="M 0.765625 0 L 2.9375 -10.796875 L 4.3125 -10.796875 L 2.15625 0 Z M 0.765625 0 "/></g></g></g><g fill="#ffffff" fill-opacity="1"><g transform="translate(171.694715, 123.472609)"><g><path d="M 5.75 0.203125 C 4.664062 0.203125 3.738281 -0.0390625 2.96875 -0.53125 C 2.195312 -1.019531 1.648438 -1.691406 1.328125 -2.546875 C 1.015625 -3.410156 0.96875 -4.394531 1.1875 -5.5 C 1.414062 -6.582031 1.832031 -7.535156 2.4375 -8.359375 C 3.039062 -9.179688 3.785156 -9.828125 4.671875 -10.296875 C 5.566406 -10.765625 6.546875 -11 7.609375 -11 C 8.460938 -11 9.222656 -10.835938 9.890625 -10.515625 C 10.566406 -10.203125 11.113281 -9.753906 11.53125 -9.171875 C 11.945312 -8.597656 12.195312 -7.914062 12.28125 -7.125 L 10.859375 -7.125 C 10.734375 -7.90625 10.382812 -8.519531 9.8125 -8.96875 C 9.25 -9.414062 8.53125 -9.640625 7.65625 -9.640625 C 6.820312 -9.640625 6.046875 -9.453125 5.328125 -9.078125 C 4.617188 -8.703125 4.023438 -8.1875 3.546875 -7.53125 C 3.066406 -6.875 2.742188 -6.128906 2.578125 -5.296875 C 2.410156 -4.484375 2.429688 -3.765625 2.640625 -3.140625 C 2.859375 -2.515625 3.234375 -2.023438 3.765625 -1.671875 C 4.296875 -1.328125 4.957031 -1.15625 5.75 -1.15625 C 6.363281 -1.15625 6.953125 -1.257812 7.515625 -1.46875 C 8.085938 -1.6875 8.609375 -1.992188 9.078125 -2.390625 C 9.546875 -2.785156 9.929688 -3.253906 10.234375 -3.796875 L 11.71875 -3.796875 C 11.34375 -2.941406 10.847656 -2.210938 10.234375 -1.609375 C 9.617188 -1.015625 8.925781 -0.5625 8.15625 -0.25 C 7.394531 0.0507812 6.59375 0.203125 5.75 0.203125 Z M 5.75 0.203125 "/></g></g></g><g fill="#ffffff" fill-opacity="1"><g transform="translate(189.617849, 123.472609)"><g><path d="M 5.734375 0.203125 C 4.628906 0.203125 3.695312 -0.0390625 2.9375 -0.53125 C 2.175781 -1.019531 1.640625 -1.691406 1.328125 -2.546875 C 1.015625 -3.398438 0.96875 -4.378906 1.1875 -5.484375 C 1.40625 -6.578125 1.828125 -7.535156 2.453125 -8.359375 C 3.078125 -9.191406 3.847656 -9.835938 4.765625 -10.296875 C 5.691406 -10.765625 6.691406 -11 7.765625 -11 C 8.890625 -11 9.828125 -10.753906 10.578125 -10.265625 C 11.335938 -9.773438 11.875 -9.101562 12.1875 -8.25 C 12.507812 -7.394531 12.5625 -6.414062 12.34375 -5.3125 C 12.125 -4.21875 11.695312 -3.253906 11.0625 -2.421875 C 10.4375 -1.597656 9.664062 -0.953125 8.75 -0.484375 C 7.832031 -0.0234375 6.828125 0.203125 5.734375 0.203125 Z M 2.5625 -5.3125 C 2.394531 -4.488281 2.421875 -3.757812 2.640625 -3.125 C 2.859375 -2.5 3.238281 -2.015625 3.78125 -1.671875 C 4.320312 -1.328125 5 -1.15625 5.8125 -1.15625 C 6.65625 -1.15625 7.429688 -1.335938 8.140625 -1.703125 C 8.859375 -2.078125 9.460938 -2.585938 9.953125 -3.234375 C 10.453125 -3.890625 10.785156 -4.640625 10.953125 -5.484375 C 11.128906 -6.316406 11.101562 -7.046875 10.875 -7.671875 C 10.65625 -8.296875 10.273438 -8.78125 9.734375 -9.125 C 9.191406 -9.46875 8.515625 -9.640625 7.703125 -9.640625 C 6.867188 -9.640625 6.085938 -9.453125 5.359375 -9.078125 C 4.640625 -8.710938 4.035156 -8.203125 3.546875 -7.546875 C 3.066406 -6.898438 2.738281 -6.15625 2.5625 -5.3125 Z M 2.5625 -5.3125 "/></g></g></g><g fill="#ffffff" fill-opacity="1"><g transform="translate(207.895694, 123.472609)"><g><path d="M 0.765625 0 L 2.9375 -10.796875 L 4.3125 -10.796875 L 2.421875 -1.296875 L 7.640625 -1.296875 L 7.375 0 Z M 0.765625 0 "/></g></g></g><g fill="#ffffff" fill-opacity="1"><g transform="translate(221.870845, 123.472609)"><g><path d="M 0.765625 0 L 2.9375 -10.796875 L 4.3125 -10.796875 L 2.15625 0 Z M 0.765625 0 "/></g></g></g><g fill="#ffffff" fill-opacity="1"><g transform="translate(231.728385, 123.472609)"><g/></g></g><g fill="#ffffff" fill-opacity="1"><g transform="translate(240.876517, 123.472609)"><g><path d="M 0.765625 0 L 2.9375 -10.796875 L 6.59375 -10.796875 C 7.6875 -10.796875 8.609375 -10.554688 9.359375 -10.078125 C 10.109375 -9.609375 10.640625 -8.957031 10.953125 -8.125 C 11.265625 -7.289062 11.316406 -6.335938 11.109375 -5.265625 C 10.910156 -4.222656 10.5 -3.304688 9.875 -2.515625 C 9.25 -1.722656 8.476562 -1.101562 7.5625 -0.65625 C 6.65625 -0.21875 5.648438 0 4.546875 0 Z M 2.421875 -1.296875 L 4.640625 -1.296875 C 5.484375 -1.296875 6.257812 -1.472656 6.96875 -1.828125 C 7.675781 -2.179688 8.269531 -2.671875 8.75 -3.296875 C 9.238281 -3.929688 9.566406 -4.660156 9.734375 -5.484375 C 9.898438 -6.296875 9.875 -7 9.65625 -7.59375 C 9.4375 -8.195312 9.054688 -8.664062 8.515625 -9 C 7.972656 -9.332031 7.289062 -9.5 6.46875 -9.5 L 4.0625 -9.5 Z M 2.421875 -1.296875 "/></g></g></g><g fill="#ffffff" fill-opacity="1"><g transform="translate(257.951467, 123.472609)"><g><path d="M 0.765625 0 L 2.9375 -10.796875 L 4.3125 -10.796875 L 2.15625 0 Z M 0.765625 0 "/></g></g></g><g fill="#ffffff" fill-opacity="1"><g transform="translate(144.681998, 211.838439)"><g><path d="M 3.75 0.140625 C 3.113281 0.140625 2.566406 0.0351562 2.109375 -0.171875 C 1.660156 -0.378906 1.3125 -0.675781 1.0625 -1.0625 C 0.8125 -1.445312 0.679688 -1.894531 0.671875 -2.40625 L 1.65625 -2.40625 C 1.664062 -1.90625 1.863281 -1.507812 2.25 -1.21875 C 2.632812 -0.9375 3.132812 -0.796875 3.75 -0.796875 C 4.289062 -0.796875 4.722656 -0.898438 5.046875 -1.109375 C 5.378906 -1.328125 5.546875 -1.628906 5.546875 -2.015625 C 5.546875 -2.378906 5.390625 -2.671875 5.078125 -2.890625 C 4.765625 -3.117188 4.253906 -3.3125 3.546875 -3.46875 C 2.578125 -3.707031 1.867188 -4.003906 1.421875 -4.359375 C 0.984375 -4.722656 0.765625 -5.207031 0.765625 -5.8125 C 0.765625 -6.46875 1.015625 -6.988281 1.515625 -7.375 C 2.015625 -7.769531 2.691406 -7.96875 3.546875 -7.96875 C 4.429688 -7.96875 5.128906 -7.742188 5.640625 -7.296875 C 6.148438 -6.859375 6.40625 -6.257812 6.40625 -5.5 L 5.4375 -5.5 C 5.425781 -5.976562 5.25 -6.351562 4.90625 -6.625 C 4.570312 -6.894531 4.117188 -7.03125 3.546875 -7.03125 C 2.992188 -7.03125 2.554688 -6.921875 2.234375 -6.703125 C 1.921875 -6.484375 1.765625 -6.1875 1.765625 -5.8125 C 1.765625 -5.488281 1.910156 -5.21875 2.203125 -5 C 2.492188 -4.78125 3.019531 -4.578125 3.78125 -4.390625 C 4.78125 -4.140625 5.492188 -3.832031 5.921875 -3.46875 C 6.347656 -3.101562 6.5625 -2.632812 6.5625 -2.0625 C 6.5625 -1.375 6.304688 -0.832031 5.796875 -0.4375 C 5.285156 -0.0507812 4.601562 0.140625 3.75 0.140625 Z M 3.75 0.140625 "/></g></g></g><g fill="#ffffff" fill-opacity="1"><g transform="translate(154.134505, 211.838439)"><g><path d="M 1.140625 0 L 1.140625 -7.8125 L 2.125 -7.8125 L 2.125 0 Z M 1.140625 0 "/></g></g></g><g fill="#ffffff" fill-opacity="1"><g transform="translate(159.626556, 211.838439)"><g><path d="M 1.140625 0 L 1.140625 -7.8125 L 2.0625 -7.8125 L 6.390625 -1.703125 L 6.390625 -7.8125 L 7.34375 -7.8125 L 7.34375 0 L 6.4375 0 L 2.109375 -6.125 L 2.109375 0 Z M 1.140625 0 "/></g></g></g><g fill="#ffffff" fill-opacity="1"><g transform="translate(170.33971, 211.838439)"><g><path d="M 4.609375 0.140625 C 4.035156 0.140625 3.503906 0.0390625 3.015625 -0.15625 C 2.535156 -0.351562 2.117188 -0.632812 1.765625 -1 C 1.410156 -1.363281 1.132812 -1.789062 0.9375 -2.28125 C 0.738281 -2.78125 0.640625 -3.320312 0.640625 -3.90625 C 0.640625 -4.5 0.738281 -5.039062 0.9375 -5.53125 C 1.132812 -6.03125 1.410156 -6.457031 1.765625 -6.8125 C 2.117188 -7.175781 2.535156 -7.457031 3.015625 -7.65625 C 3.503906 -7.863281 4.035156 -7.96875 4.609375 -7.96875 C 5.222656 -7.96875 5.785156 -7.851562 6.296875 -7.625 C 6.816406 -7.394531 7.257812 -7.066406 7.625 -6.640625 C 8 -6.222656 8.273438 -5.726562 8.453125 -5.15625 L 7.390625 -5.15625 C 7.191406 -5.726562 6.84375 -6.175781 6.34375 -6.5 C 5.851562 -6.820312 5.285156 -6.984375 4.640625 -6.984375 C 4.054688 -6.984375 3.539062 -6.851562 3.09375 -6.59375 C 2.644531 -6.332031 2.289062 -5.96875 2.03125 -5.5 C 1.78125 -5.039062 1.65625 -4.507812 1.65625 -3.90625 C 1.65625 -3.300781 1.78125 -2.769531 2.03125 -2.3125 C 2.289062 -1.851562 2.644531 -1.492188 3.09375 -1.234375 C 3.539062 -0.972656 4.054688 -0.84375 4.640625 -0.84375 C 5.296875 -0.84375 5.878906 -1.007812 6.390625 -1.34375 C 6.910156 -1.6875 7.269531 -2.15625 7.46875 -2.75 L 8.515625 -2.75 C 8.359375 -2.164062 8.09375 -1.65625 7.71875 -1.21875 C 7.34375 -0.789062 6.882812 -0.457031 6.34375 -0.21875 C 5.8125 0.0195312 5.234375 0.140625 4.609375 0.140625 Z M 4.609375 0.140625 "/></g></g></g><g fill="#ffffff" fill-opacity="1"><g transform="translate(181.67762, 211.838439)"><g><path d="M 1.140625 0 L 1.140625 -7.8125 L 5.890625 -7.8125 L 5.890625 -6.90625 L 2.125 -6.90625 L 2.125 -4.4375 L 5.609375 -4.4375 L 5.609375 -3.53125 L 2.125 -3.53125 L 2.125 -0.921875 L 6.015625 -0.921875 L 6.015625 0 Z M 1.140625 0 "/></g></g></g><g fill="#ffffff" fill-opacity="1"><g transform="translate(190.639256, 211.838439)"><g/></g></g><g fill="#ffffff" fill-opacity="1"><g transform="translate(195.640435, 211.838439)"><g><path d="M 0.796875 0 L 0.796875 -0.734375 L 4.046875 -3.703125 C 4.421875 -4.054688 4.695312 -4.382812 4.875 -4.6875 C 5.050781 -4.988281 5.140625 -5.300781 5.140625 -5.625 C 5.140625 -6.070312 4.988281 -6.429688 4.6875 -6.703125 C 4.382812 -6.972656 3.992188 -7.109375 3.515625 -7.109375 C 3.015625 -7.109375 2.609375 -6.957031 2.296875 -6.65625 C 1.984375 -6.351562 1.820312 -5.929688 1.8125 -5.390625 L 0.890625 -5.390625 C 0.910156 -5.910156 1.03125 -6.363281 1.25 -6.75 C 1.46875 -7.132812 1.765625 -7.429688 2.140625 -7.640625 C 2.523438 -7.859375 2.976562 -7.96875 3.5 -7.96875 C 4 -7.96875 4.441406 -7.863281 4.828125 -7.65625 C 5.222656 -7.457031 5.53125 -7.179688 5.75 -6.828125 C 5.976562 -6.484375 6.09375 -6.082031 6.09375 -5.625 C 6.09375 -5.175781 5.972656 -4.734375 5.734375 -4.296875 C 5.503906 -3.859375 5.148438 -3.414062 4.671875 -2.96875 L 2.40625 -0.921875 L 6.25 -0.921875 L 6.25 0 Z M 0.796875 0 "/></g></g></g><g fill="#ffffff" fill-opacity="1"><g transform="translate(205.026003, 211.838439)"><g><path d="M 3.90625 0.140625 C 3.257812 0.140625 2.695312 -0.0195312 2.21875 -0.34375 C 1.75 -0.675781 1.382812 -1.144531 1.125 -1.75 C 0.875 -2.351562 0.75 -3.070312 0.75 -3.90625 C 0.75 -4.738281 0.875 -5.457031 1.125 -6.0625 C 1.382812 -6.675781 1.75 -7.144531 2.21875 -7.46875 C 2.695312 -7.800781 3.257812 -7.96875 3.90625 -7.96875 C 4.5625 -7.96875 5.125 -7.800781 5.59375 -7.46875 C 6.0625 -7.144531 6.421875 -6.675781 6.671875 -6.0625 C 6.929688 -5.457031 7.0625 -4.738281 7.0625 -3.90625 C 7.0625 -3.070312 6.929688 -2.351562 6.671875 -1.75 C 6.421875 -1.144531 6.0625 -0.675781 5.59375 -0.34375 C 5.125 -0.0195312 4.5625 0.140625 3.90625 0.140625 Z M 1.71875 -3.90625 C 1.71875 -2.945312 1.910156 -2.1875 2.296875 -1.625 C 2.691406 -1.070312 3.226562 -0.796875 3.90625 -0.796875 C 4.582031 -0.796875 5.113281 -1.070312 5.5 -1.625 C 5.894531 -2.1875 6.09375 -2.945312 6.09375 -3.90625 C 6.09375 -4.863281 5.894531 -5.617188 5.5 -6.171875 C 5.113281 -6.734375 4.582031 -7.015625 3.90625 -7.015625 C 3.226562 -7.015625 2.691406 -6.734375 2.296875 -6.171875 C 1.910156 -5.617188 1.71875 -4.863281 1.71875 -3.90625 Z M 1.71875 -3.90625 "/></g></g></g><g fill="#ffffff" fill-opacity="1"><g transform="translate(215.058638, 211.838439)"><g><path d="M 0.796875 0 L 0.796875 -0.734375 L 4.046875 -3.703125 C 4.421875 -4.054688 4.695312 -4.382812 4.875 -4.6875 C 5.050781 -4.988281 5.140625 -5.300781 5.140625 -5.625 C 5.140625 -6.070312 4.988281 -6.429688 4.6875 -6.703125 C 4.382812 -6.972656 3.992188 -7.109375 3.515625 -7.109375 C 3.015625 -7.109375 2.609375 -6.957031 2.296875 -6.65625 C 1.984375 -6.351562 1.820312 -5.929688 1.8125 -5.390625 L 0.890625 -5.390625 C 0.910156 -5.910156 1.03125 -6.363281 1.25 -6.75 C 1.46875 -7.132812 1.765625 -7.429688 2.140625 -7.640625 C 2.523438 -7.859375 2.976562 -7.96875 3.5 -7.96875 C 4 -7.96875 4.441406 -7.863281 4.828125 -7.65625 C 5.222656 -7.457031 5.53125 -7.179688 5.75 -6.828125 C 5.976562 -6.484375 6.09375 -6.082031 6.09375 -5.625 C 6.09375 -5.175781 5.972656 -4.734375 5.734375 -4.296875 C 5.503906 -3.859375 5.148438 -3.414062 4.671875 -2.96875 L 2.40625 -0.921875 L 6.25 -0.921875 L 6.25 0 Z M 0.796875 0 "/></g></g></g><g fill="#ffffff" fill-opacity="1"><g transform="translate(224.444211, 211.838439)"><g><path d="M 0.40625 -1.65625 L 0.40625 -2.40625 L 3.234375 -7.8125 L 4.34375 -7.8125 L 1.59375 -2.5625 L 4.40625 -2.5625 L 4.46875 -5.046875 L 5.375 -5.046875 L 5.375 -2.59375 L 6.421875 -2.59375 L 6.421875 -1.65625 L 5.375 -1.65625 L 5.375 0 L 4.390625 0 L 4.390625 -1.65625 Z M 0.40625 -1.65625 "/></g></g></g></svg>