<svg xmlns="http://www.w3.org/2000/svg" xmlns:xlink="http://www.w3.org/1999/xlink" width="500" zoomAndPan="magnify" viewBox="0 0 375 374.999991" height="500" preserveAspectRatio="xMidYMid meet" version="1.0"><defs><g/><clipPath id="f121b79c76"><path d="M 66 246 L 149.332031 246 L 149.332031 249 L 66 249 Z M 66 246 " clip-rule="nonzero"/></clipPath><clipPath id="f8314d45a1"><path d="M 54.101562 244.785156 L 149.332031 244.785156 L 149.332031 250.785156 L 54.101562 250.785156 Z M 54.101562 244.785156 " clip-rule="nonzero"/></clipPath><clipPath id="e440ca01fe"><path d="M 225.664062 247 L 309 247 L 309 250 L 225.664062 250 Z M 225.664062 247 " clip-rule="nonzero"/></clipPath><clipPath id="7d53ab3a97"><path d="M 225.664062 245.03125 L 320.898438 245.03125 L 320.898438 251.03125 L 225.664062 251.03125 Z M 225.664062 245.03125 " clip-rule="nonzero"/></clipPath><clipPath id="92f39ff905"><path d="M 45.75 170 L 139 170 L 139 193.792969 L 45.75 193.792969 Z M 45.75 170 " clip-rule="nonzero"/></clipPath><clipPath id="3506c90c5a"><path d="M 50 129.292969 L 329.25 129.292969 L 329.25 182 L 50 182 Z M 50 129.292969 " clip-rule="nonzero"/></clipPath></defs><g clip-path="url(#f121b79c76)"><path fill="#000000" d="M 66.734375 248.375 L 250.472656 248.375 L 250.472656 246.316406 Z M 66.734375 248.375 " fill-opacity="1" fill-rule="nonzero"/></g><g clip-path="url(#f8314d45a1)"><path fill="#000000" d="M 264.484375 257.484375 L 251.742188 257.484375 L 249.777344 253.542969 L 54.101562 253.542969 L 248.523438 253.542969 L 250.714844 251.898438 L 252.667969 255.289062 L 261.019531 255.289062 L 254.054688 242.679688 L 79.925781 242.679688 L 254.988281 241.046875 L 264.484375 257.484375 " fill-opacity="1" fill-rule="nonzero"/></g><g clip-path="url(#e440ca01fe)"><path fill="#000000" d="M 308.261719 247.4375 L 124.523438 247.4375 L 124.523438 249.5 Z M 308.261719 247.4375 " fill-opacity="1" fill-rule="nonzero"/></g><g clip-path="url(#7d53ab3a97)"><path fill="#000000" d="M 110.511719 238.332031 L 123.257812 238.332031 L 125.21875 242.273438 L 320.898438 242.273438 L 126.472656 242.273438 L 124.285156 243.917969 L 122.328125 240.527344 L 113.976562 240.527344 L 120.945312 253.136719 L 295.074219 253.136719 L 120.007812 254.769531 L 110.511719 238.332031 " fill-opacity="1" fill-rule="nonzero"/></g><g clip-path="url(#92f39ff905)"><path fill="#000000" d="M 138.9375 188.371094 C 105.300781 191.050781 82.347656 187.867188 68.914062 184.679688 C 71.957031 184.683594 75.003906 184.601562 77.949219 184.449219 C 80.753906 184.304688 83.542969 184.097656 86.320312 183.851562 C 88.644531 183.644531 92.941406 183.214844 95.527344 182.878906 C 90.335938 182.039062 85.207031 180.976562 80.171875 179.816406 C 75.703125 178.789062 71.28125 177.652344 67.019531 176.324219 C 63.601562 175.261719 60.503906 173.859375 57.351562 172.535156 C 54.714844 171.425781 50.949219 169.507812 48.03125 171.179688 C 45.765625 172.476562 45.742188 175.144531 45.933594 176.914062 C 46.484375 181.914062 53.960938 184.867188 57.898438 186.664062 C 62.703125 188.851562 67.8125 190.332031 72.984375 191.355469 C 83.621094 193.453125 94.589844 193.699219 105.390625 193.085938 C 114.011719 192.585938 122.574219 191.554688 131.066406 189.992188 C 133.628906 189.523438 136.28125 188.957031 138.9375 188.371094 Z M 138.9375 188.371094 " fill-opacity="1" fill-rule="nonzero"/></g><g clip-path="url(#3506c90c5a)"><path fill="#000000" d="M 325.96875 163.164062 C 324.367188 162.425781 322.726562 161.730469 321.046875 161.082031 C 319.0625 160.308594 317.039062 159.597656 314.972656 158.941406 C 309.871094 157.332031 304.683594 156.0625 299.414062 155.136719 C 294.046875 154.199219 288.648438 153.535156 283.214844 153.144531 C 281.851562 153.050781 280.488281 152.945312 279.125 152.882812 L 277.078125 152.773438 L 275.03125 152.695312 C 274.347656 152.671875 273.664062 152.644531 272.980469 152.628906 L 270.929688 152.589844 C 269.5625 152.558594 268.199219 152.558594 266.832031 152.550781 C 266.148438 152.542969 265.464844 152.546875 264.785156 152.554688 L 262.738281 152.566406 C 261.371094 152.582031 260.011719 152.613281 258.648438 152.636719 L 254.566406 152.765625 C 253.207031 152.820312 251.847656 152.867188 250.492188 152.929688 C 247.78125 153.054688 245.070312 153.195312 242.371094 153.351562 C 241.019531 153.429688 239.667969 153.515625 238.320312 153.605469 L 234.277344 153.875 C 223.5 154.601562 212.765625 155.503906 202.066406 156.40625 C 191.363281 157.308594 180.691406 158.230469 170.035156 158.992188 C 164.707031 159.386719 159.382812 159.730469 154.0625 160.023438 C 148.742188 160.316406 143.425781 160.5625 138.113281 160.71875 C 132.800781 160.875 127.492188 160.988281 122.195312 160.964844 C 121.53125 160.964844 120.871094 160.972656 120.210938 160.964844 L 118.226562 160.945312 C 116.902344 160.925781 115.578125 160.925781 114.257812 160.886719 L 110.292969 160.792969 L 106.339844 160.644531 C 102.171875 160.46875 98.015625 160.226562 93.871094 159.910156 C 95.246094 159.371094 96.601562 158.816406 97.9375 158.246094 C 104.933594 155.265625 111.453125 151.957031 117.933594 148.816406 C 124.414062 145.679688 130.867188 142.695312 137.625 140.359375 C 138.46875 140.074219 139.3125 139.777344 140.167969 139.515625 C 140.59375 139.382812 141.019531 139.242188 141.449219 139.113281 L 142.746094 138.746094 C 143.609375 138.5 144.46875 138.238281 145.351562 138.03125 L 146.671875 137.703125 C 147.109375 137.59375 147.546875 137.472656 147.992188 137.382812 L 150.664062 136.796875 L 153.371094 136.289062 C 153.597656 136.246094 153.820312 136.199219 154.050781 136.164062 L 156.101562 135.847656 C 156.558594 135.777344 157.015625 135.695312 157.472656 135.640625 L 158.855469 135.46875 L 160.238281 135.292969 C 160.699219 135.238281 161.164062 135.203125 161.625 135.15625 L 163.019531 135.019531 L 163.714844 134.953125 L 164.414062 134.902344 C 165.347656 134.835938 166.28125 134.761719 167.21875 134.703125 L 170.035156 134.574219 C 173.796875 134.445312 177.578125 134.480469 181.367188 134.636719 C 182.3125 134.683594 183.261719 134.714844 184.207031 134.777344 L 187.050781 134.972656 C 188.941406 135.136719 190.835938 135.296875 192.722656 135.519531 C 196.5 135.945312 200.273438 136.460938 204.019531 137.105469 C 211.507812 138.394531 218.925781 140.046875 226.222656 142.007812 C 233.535156 143.941406 240.714844 146.191406 247.84375 148.578125 C 244.515625 147.050781 241.128906 145.589844 237.683594 144.199219 C 234.246094 142.796875 230.742188 141.488281 227.1875 140.242188 C 219.972656 137.707031 212.644531 135.566406 205.195312 133.820312 C 197.523438 132.023438 189.765625 130.757812 181.921875 130.023438 C 177.949219 129.664062 173.949219 129.464844 169.914062 129.425781 C 165.882812 129.386719 161.835938 129.546875 157.808594 129.902344 L 156.296875 130.035156 C 155.792969 130.074219 155.292969 130.148438 154.789062 130.203125 L 153.285156 130.378906 L 152.53125 130.464844 C 152.277344 130.496094 152.03125 130.539062 151.78125 130.574219 L 148.785156 131.019531 L 145.808594 131.554688 C 145.3125 131.636719 144.820312 131.75 144.328125 131.851562 L 142.855469 132.171875 C 141.871094 132.371094 140.90625 132.625 139.933594 132.863281 L 138.476562 133.230469 C 137.996094 133.355469 137.519531 133.492188 137.039062 133.625 C 136.074219 133.886719 135.132812 134.179688 134.1875 134.464844 C 133.714844 134.605469 133.253906 134.761719 132.785156 134.914062 C 132.316406 135.0625 131.851562 135.214844 131.386719 135.371094 C 130.472656 135.691406 129.539062 135.996094 128.636719 136.335938 L 127.277344 136.832031 L 125.929688 137.34375 C 125.027344 137.679688 124.148438 138.039062 123.261719 138.390625 C 119.734375 139.816406 116.3125 141.320312 112.949219 142.847656 L 102.980469 147.410156 C 99.6875 148.90625 96.398438 150.347656 93.085938 151.699219 C 89.773438 153.042969 86.425781 154.261719 83.039062 155.328125 C 79.648438 156.382812 76.210938 157.238281 72.722656 157.898438 L 50.378906 162.097656 L 72.984375 165.488281 C 78.398438 166.300781 83.84375 166.96875 89.316406 167.484375 C 94.785156 168 100.269531 168.339844 105.753906 168.582031 C 116.726562 169.03125 127.699219 168.972656 138.59375 168.546875 C 160.40625 167.703125 181.910156 165.476562 203.234375 163.109375 C 206.578125 162.734375 209.917969 162.363281 213.257812 161.984375 C 208.613281 162.949219 203.984375 163.953125 199.375 164.996094 L 183.460938 168.65625 C 178.171875 169.886719 172.875 171.074219 167.574219 172.214844 L 163.597656 173.0625 C 162.273438 173.34375 160.945312 173.617188 159.617188 173.882812 L 155.632812 174.679688 L 153.636719 175.074219 L 151.664062 175.441406 C 146.398438 176.375 141.058594 177.050781 135.695312 177.503906 C 124.902344 178.367188 114.105469 178.429688 103.304688 177.691406 C 92.441406 176.957031 81.671875 175.515625 71 173.367188 C 81.382812 176.65625 92.136719 178.917969 103.019531 180.367188 C 113.96875 181.804688 124.960938 182.285156 135.992188 181.816406 C 141.527344 181.570312 147.035156 181.039062 152.515625 180.21875 L 154.570312 179.894531 L 156.597656 179.554688 C 157.949219 179.328125 159.296875 179.089844 160.640625 178.84375 C 161.988281 178.601562 163.335938 178.351562 164.679688 178.09375 L 168.707031 177.320312 C 174.078125 176.269531 179.417969 175.113281 184.75 173.953125 L 200.6875 170.367188 C 205.984375 169.160156 211.28125 167.976562 216.582031 166.871094 C 221.882812 165.742188 227.191406 164.714844 232.515625 163.792969 C 237.835938 162.859375 243.179688 162.074219 248.539062 161.402344 L 252.5625 160.9375 L 256.59375 160.53125 L 260.632812 160.171875 L 264.675781 159.878906 L 268.722656 159.640625 L 272.777344 159.449219 C 275.496094 159.34375 278.207031 159.257812 280.921875 159.1875 C 286.34375 159.054688 291.765625 159.03125 297.175781 159.230469 C 305.195312 159.5 313.214844 160.308594 321.082031 161.996094 C 323.851562 162.8125 326.570312 163.734375 329.242188 164.757812 C 328.171875 164.203125 327.082031 163.671875 325.96875 163.164062 Z M 325.96875 163.164062 " fill-opacity="1" fill-rule="nonzero"/></g><path fill="#000000" d="M 260.214844 190.757812 C 260.902344 187.335938 262.179688 184.148438 264.050781 181.199219 C 265.945312 178.195312 268.289062 175.589844 271.082031 173.386719 C 273.910156 171.15625 277.027344 169.460938 280.4375 168.300781 C 281.285156 168.011719 282.152344 167.792969 283.015625 167.542969 C 283.886719 167.347656 284.769531 167.179688 285.648438 167 C 286.535156 166.882812 287.429688 166.785156 288.320312 166.683594 L 289.660156 166.609375 C 290.109375 166.589844 290.558594 166.59375 291.007812 166.585938 C 292.804688 166.605469 294.589844 166.765625 296.363281 167.070312 C 298.132812 167.382812 299.867188 167.835938 301.558594 168.4375 C 304.957031 169.640625 308.050781 171.375 310.847656 173.644531 C 313.613281 175.882812 315.925781 178.519531 317.78125 181.554688 C 319.609375 184.53125 320.835938 187.734375 321.464844 191.171875 C 320.761719 189.636719 319.964844 188.152344 319.078125 186.71875 C 318.207031 185.308594 317.238281 183.96875 316.179688 182.695312 C 314.089844 180.175781 311.6875 178.003906 308.976562 176.171875 C 307.652344 175.277344 306.273438 174.484375 304.835938 173.792969 C 303.398438 173.101562 301.917969 172.519531 300.394531 172.046875 C 298.867188 171.574219 297.320312 171.214844 295.742188 170.972656 C 294.164062 170.726562 292.578125 170.601562 290.984375 170.589844 C 289.386719 170.578125 287.800781 170.683594 286.222656 170.910156 C 284.640625 171.132812 283.085938 171.46875 281.554688 171.921875 C 280.027344 172.375 278.539062 172.9375 277.089844 173.609375 C 275.644531 174.28125 274.253906 175.054688 272.917969 175.929688 C 270.183594 177.726562 267.753906 179.867188 265.632812 182.355469 C 263.453125 184.917969 261.648438 187.71875 260.214844 190.757812 Z M 260.214844 190.757812 " fill-opacity="1" fill-rule="nonzero"/><g fill="#000000" fill-opacity="1"><g transform="translate(90.058938, 236.199876)"><g><path d="M 13.140625 0.703125 C 8.804688 0.703125 5.585938 -0.285156 3.484375 -2.265625 C 1.378906 -4.242188 0.6875 -6.976562 1.40625 -10.46875 L 10.328125 -10.46875 C 9.960938 -7.914062 11.148438 -6.640625 13.890625 -6.640625 C 15.046875 -6.640625 15.988281 -6.863281 16.71875 -7.3125 C 17.445312 -7.769531 17.890625 -8.40625 18.046875 -9.21875 C 18.265625 -10.238281 18 -11.082031 17.25 -11.75 C 16.507812 -12.425781 15.21875 -12.90625 13.375 -13.1875 C 10.070312 -13.75 7.546875 -14.976562 5.796875 -16.875 C 4.054688 -18.78125 3.476562 -21.242188 4.0625 -24.265625 C 4.625 -27.109375 6.066406 -29.347656 8.390625 -30.984375 C 10.710938 -32.617188 13.867188 -33.4375 17.859375 -33.4375 C 20.578125 -33.4375 22.851562 -32.984375 24.6875 -32.078125 C 26.53125 -31.171875 27.878906 -29.898438 28.734375 -28.265625 C 29.597656 -26.628906 29.875 -24.707031 29.5625 -22.5 L 20.578125 -22.5 C 20.796875 -23.488281 20.625 -24.359375 20.0625 -25.109375 C 19.5 -25.859375 18.5 -26.234375 17.0625 -26.234375 C 16.007812 -26.234375 15.140625 -26.003906 14.453125 -25.546875 C 13.765625 -25.097656 13.34375 -24.515625 13.1875 -23.796875 C 12.96875 -22.742188 13.238281 -21.910156 14 -21.296875 C 14.769531 -20.691406 16.101562 -20.1875 18 -19.78125 C 21.5625 -19.0625 24.164062 -17.742188 25.8125 -15.828125 C 27.46875 -13.910156 28.015625 -11.535156 27.453125 -8.703125 C 26.859375 -5.796875 25.34375 -3.5 22.90625 -1.8125 C 20.476562 -0.132812 17.222656 0.703125 13.140625 0.703125 Z M 13.140625 0.703125 "/></g></g></g><g fill="#000000" fill-opacity="1"><g transform="translate(119.89928, 236.199876)"><g><path d="M 1.03125 0 L 7.578125 -32.734375 L 17.15625 -32.734375 L 10.609375 0 Z M 1.03125 0 "/></g></g></g><g fill="#000000" fill-opacity="1"><g transform="translate(136.45646, 236.199876)"><g><path d="M 1.03125 0 L 7.578125 -32.734375 L 14.6875 -32.734375 L 22.546875 -17.15625 L 36.671875 -32.734375 L 45.125 -32.734375 L 38.578125 0 L 29.046875 0 L 30.8125 -8.75 L 32.359375 -16.5625 L 24.40625 -7.765625 L 18.328125 -7.765625 L 13.84375 -16.65625 L 12.25 -8.75 L 10.515625 0 Z M 1.03125 0 "/></g></g></g><g fill="#000000" fill-opacity="1"><g transform="translate(180.983113, 236.199876)"><g><path d="M 17.625 0.703125 C 14.007812 0.703125 10.953125 -0.0546875 8.453125 -1.578125 C 5.960938 -3.109375 4.179688 -5.207031 3.109375 -7.875 C 2.035156 -10.539062 1.84375 -13.601562 2.53125 -17.0625 C 3 -19.46875 3.847656 -21.675781 5.078125 -23.6875 C 6.304688 -25.695312 7.816406 -27.425781 9.609375 -28.875 C 11.398438 -30.320312 13.414062 -31.441406 15.65625 -32.234375 C 17.90625 -33.035156 20.28125 -33.4375 22.78125 -33.4375 C 26.425781 -33.4375 29.492188 -32.671875 31.984375 -31.140625 C 34.484375 -29.617188 36.269531 -27.523438 37.34375 -24.859375 C 38.414062 -22.191406 38.609375 -19.128906 37.921875 -15.671875 C 37.453125 -13.265625 36.601562 -11.054688 35.375 -9.046875 C 34.144531 -7.035156 32.625 -5.304688 30.8125 -3.859375 C 29.007812 -2.410156 26.992188 -1.285156 24.765625 -0.484375 C 22.535156 0.304688 20.15625 0.703125 17.625 0.703125 Z M 12.015625 -16.328125 C 11.515625 -13.859375 11.875 -11.859375 13.09375 -10.328125 C 14.3125 -8.804688 16.117188 -8.046875 18.515625 -8.046875 C 20.140625 -8.046875 21.632812 -8.394531 23 -9.09375 C 24.375 -9.789062 25.546875 -10.769531 26.515625 -12.03125 C 27.484375 -13.300781 28.125 -14.765625 28.4375 -16.421875 C 28.9375 -18.878906 28.578125 -20.867188 27.359375 -22.390625 C 26.140625 -23.921875 24.332031 -24.6875 21.9375 -24.6875 C 20.3125 -24.6875 18.804688 -24.335938 17.421875 -23.640625 C 16.035156 -22.941406 14.875 -21.957031 13.9375 -20.6875 C 13 -19.425781 12.359375 -17.972656 12.015625 -16.328125 Z M 12.015625 -16.328125 "/></g></g></g><g fill="#000000" fill-opacity="1"><g transform="translate(219.850383, 236.199876)"><g><path d="M 1.03125 0 L 7.578125 -32.734375 L 14.828125 -32.734375 L 24.3125 -15.90625 L 25.15625 -20.203125 L 27.6875 -32.734375 L 36.984375 -32.734375 L 30.4375 0 L 23.203125 0 L 13.703125 -16.78125 L 12.859375 -12.4375 L 10.328125 0 Z M 1.03125 0 "/></g></g></g><g fill="#000000" fill-opacity="1"><g transform="translate(256.285524, 236.199876)"><g><path d="M 1.03125 0 L 7.578125 -32.734375 L 30.0625 -32.734375 L 28.578125 -25.109375 L 15.53125 -25.109375 L 14.59375 -20.34375 L 26.328125 -20.34375 L 24.78125 -12.765625 L 13.09375 -12.765625 L 12.0625 -7.71875 L 25.578125 -7.71875 L 24.03125 0 Z M 1.03125 0 "/></g></g></g><g fill="#000000" fill-opacity="1"><g transform="translate(144.609088, 194.694316)"><g><path d="M 0.4375 0 L 1.671875 -6.1875 L 2.46875 -6.1875 L 1.234375 0 Z M 0.4375 0 "/></g></g></g><g fill="#000000" fill-opacity="1"><g transform="translate(150.24648, 194.694316)"><g/></g></g><g fill="#000000" fill-opacity="1"><g transform="translate(155.478386, 194.694316)"><g><path d="M 2.15625 0 L 0.921875 -6.1875 L 1.71875 -6.1875 L 2.203125 -3.578125 L 2.6875 -1.125 L 4.125 -3.578125 L 5.6875 -6.1875 L 6.5625 -6.1875 L 2.875 0 Z M 2.15625 0 "/></g></g></g><g fill="#000000" fill-opacity="1"><g transform="translate(164.456672, 194.694316)"><g><path d="M 0.4375 0 L 1.671875 -6.1875 L 5.421875 -6.1875 L 5.28125 -5.453125 L 2.328125 -5.453125 L 1.9375 -3.5 L 4.671875 -3.5 L 4.53125 -2.796875 L 1.796875 -2.796875 L 1.390625 -0.71875 L 4.4375 -0.71875 L 4.296875 0 Z M 0.4375 0 "/></g></g></g><g fill="#000000" fill-opacity="1"><g transform="translate(172.817914, 194.694316)"><g><path d="M 0.4375 0 L 1.671875 -6.1875 L 2.46875 -6.1875 L 1.234375 0 Z M 0.4375 0 "/></g></g></g><g fill="#000000" fill-opacity="1"><g transform="translate(178.455307, 194.694316)"><g><path d="M 3.296875 0.109375 C 2.671875 0.109375 2.140625 -0.0234375 1.703125 -0.296875 C 1.265625 -0.578125 0.953125 -0.960938 0.765625 -1.453125 C 0.585938 -1.953125 0.5625 -2.519531 0.6875 -3.15625 C 0.8125 -3.769531 1.046875 -4.3125 1.390625 -4.78125 C 1.742188 -5.25 2.171875 -5.617188 2.671875 -5.890625 C 3.179688 -6.160156 3.742188 -6.296875 4.359375 -6.296875 C 4.835938 -6.296875 5.269531 -6.203125 5.65625 -6.015625 C 6.039062 -5.835938 6.351562 -5.582031 6.59375 -5.25 C 6.832031 -4.925781 6.976562 -4.535156 7.03125 -4.078125 L 6.21875 -4.078125 C 6.144531 -4.523438 5.945312 -4.875 5.625 -5.125 C 5.300781 -5.382812 4.882812 -5.515625 4.375 -5.515625 C 3.894531 -5.515625 3.453125 -5.40625 3.046875 -5.1875 C 2.648438 -4.976562 2.3125 -4.6875 2.03125 -4.3125 C 1.75 -3.9375 1.5625 -3.507812 1.46875 -3.03125 C 1.375 -2.5625 1.390625 -2.148438 1.515625 -1.796875 C 1.640625 -1.441406 1.851562 -1.160156 2.15625 -0.953125 C 2.457031 -0.753906 2.835938 -0.65625 3.296875 -0.65625 C 3.648438 -0.65625 3.988281 -0.71875 4.3125 -0.84375 C 4.632812 -0.96875 4.925781 -1.144531 5.1875 -1.375 C 5.457031 -1.601562 5.679688 -1.867188 5.859375 -2.171875 L 6.703125 -2.171875 C 6.484375 -1.679688 6.195312 -1.265625 5.84375 -0.921875 C 5.5 -0.585938 5.109375 -0.332031 4.671875 -0.15625 C 4.234375 0.0195312 3.773438 0.109375 3.296875 0.109375 Z M 3.296875 0.109375 "/></g></g></g><g fill="#000000" fill-opacity="1"><g transform="translate(188.70296, 194.694316)"><g><path d="M 3.28125 0.109375 C 2.644531 0.109375 2.109375 -0.0234375 1.671875 -0.296875 C 1.242188 -0.578125 0.941406 -0.960938 0.765625 -1.453125 C 0.585938 -1.941406 0.5625 -2.503906 0.6875 -3.140625 C 0.800781 -3.765625 1.035156 -4.3125 1.390625 -4.78125 C 1.753906 -5.257812 2.195312 -5.628906 2.71875 -5.890625 C 3.25 -6.160156 3.828125 -6.296875 4.453125 -6.296875 C 5.085938 -6.296875 5.617188 -6.15625 6.046875 -5.875 C 6.484375 -5.59375 6.789062 -5.207031 6.96875 -4.71875 C 7.15625 -4.226562 7.1875 -3.664062 7.0625 -3.03125 C 6.9375 -2.40625 6.691406 -1.859375 6.328125 -1.390625 C 5.972656 -0.921875 5.53125 -0.550781 5 -0.28125 C 4.476562 -0.0195312 3.90625 0.109375 3.28125 0.109375 Z M 1.46875 -3.03125 C 1.375 -2.5625 1.382812 -2.144531 1.5 -1.78125 C 1.625 -1.425781 1.84375 -1.148438 2.15625 -0.953125 C 2.46875 -0.753906 2.859375 -0.65625 3.328125 -0.65625 C 3.804688 -0.65625 4.25 -0.757812 4.65625 -0.96875 C 5.070312 -1.1875 5.421875 -1.484375 5.703125 -1.859375 C 5.984375 -2.234375 6.171875 -2.660156 6.265625 -3.140625 C 6.367188 -3.617188 6.351562 -4.035156 6.21875 -4.390625 C 6.09375 -4.742188 5.875 -5.019531 5.5625 -5.21875 C 5.257812 -5.414062 4.878906 -5.515625 4.421875 -5.515625 C 3.929688 -5.515625 3.476562 -5.40625 3.0625 -5.1875 C 2.65625 -4.976562 2.3125 -4.6875 2.03125 -4.3125 C 1.75 -3.945312 1.5625 -3.519531 1.46875 -3.03125 Z M 1.46875 -3.03125 "/></g></g></g><g fill="#000000" fill-opacity="1"><g transform="translate(199.153355, 194.694316)"><g><path d="M 0.4375 0 L 1.671875 -6.1875 L 2.46875 -6.1875 L 1.390625 -0.734375 L 4.375 -0.734375 L 4.21875 0 Z M 0.4375 0 "/></g></g></g><g fill="#000000" fill-opacity="1"><g transform="translate(207.144362, 194.694316)"><g><path d="M 0.4375 0 L 1.671875 -6.1875 L 2.46875 -6.1875 L 1.234375 0 Z M 0.4375 0 "/></g></g></g><g fill="#000000" fill-opacity="1"><g transform="translate(212.781755, 194.694316)"><g/></g></g><g fill="#000000" fill-opacity="1"><g transform="translate(218.013662, 194.694316)"><g><path d="M 0.4375 0 L 1.671875 -6.1875 L 3.78125 -6.1875 C 4.40625 -6.1875 4.929688 -6.050781 5.359375 -5.78125 C 5.785156 -5.507812 6.085938 -5.132812 6.265625 -4.65625 C 6.453125 -4.175781 6.484375 -3.628906 6.359375 -3.015625 C 6.242188 -2.421875 6.007812 -1.894531 5.65625 -1.4375 C 5.300781 -0.988281 4.859375 -0.632812 4.328125 -0.375 C 3.804688 -0.125 3.234375 0 2.609375 0 Z M 1.390625 -0.734375 L 2.65625 -0.734375 C 3.132812 -0.734375 3.578125 -0.832031 3.984375 -1.03125 C 4.390625 -1.238281 4.726562 -1.523438 5 -1.890625 C 5.28125 -2.253906 5.472656 -2.671875 5.578125 -3.140625 C 5.671875 -3.609375 5.65625 -4.007812 5.53125 -4.34375 C 5.40625 -4.6875 5.1875 -4.953125 4.875 -5.140625 C 4.5625 -5.335938 4.171875 -5.4375 3.703125 -5.4375 L 2.328125 -5.4375 Z M 1.390625 -0.734375 "/></g></g></g><g fill="#000000" fill-opacity="1"><g transform="translate(227.776488, 194.694316)"><g><path d="M 0.4375 0 L 1.671875 -6.1875 L 2.46875 -6.1875 L 1.234375 0 Z M 0.4375 0 "/></g></g></g><g fill="#000000" fill-opacity="1"><g transform="translate(156.738527, 250.139282)"><g><path d="M 0.953125 0 L 0.953125 -6.546875 L 4.9375 -6.546875 L 4.9375 -5.78125 L 1.78125 -5.78125 L 1.78125 -3.71875 L 4.703125 -3.71875 L 4.703125 -2.953125 L 1.78125 -2.953125 L 1.78125 -0.765625 L 5.03125 -0.765625 L 5.03125 0 Z M 0.953125 0 "/></g></g></g><g fill="#000000" fill-opacity="1"><g transform="translate(164.24843, 250.139282)"><g><path d="M 3.140625 0.125 C 2.609375 0.125 2.148438 0.0351562 1.765625 -0.140625 C 1.390625 -0.316406 1.097656 -0.566406 0.890625 -0.890625 C 0.679688 -1.210938 0.570312 -1.585938 0.5625 -2.015625 L 1.390625 -2.015625 C 1.398438 -1.597656 1.566406 -1.269531 1.890625 -1.03125 C 2.210938 -0.789062 2.628906 -0.671875 3.140625 -0.671875 C 3.597656 -0.671875 3.960938 -0.757812 4.234375 -0.9375 C 4.503906 -1.113281 4.640625 -1.363281 4.640625 -1.6875 C 4.640625 -2 4.507812 -2.242188 4.25 -2.421875 C 3.988281 -2.609375 3.5625 -2.769531 2.96875 -2.90625 C 2.164062 -3.101562 1.578125 -3.351562 1.203125 -3.65625 C 0.828125 -3.957031 0.640625 -4.359375 0.640625 -4.859375 C 0.640625 -5.421875 0.847656 -5.863281 1.265625 -6.1875 C 1.691406 -6.507812 2.257812 -6.671875 2.96875 -6.671875 C 3.707031 -6.671875 4.289062 -6.484375 4.71875 -6.109375 C 5.144531 -5.742188 5.363281 -5.242188 5.375 -4.609375 L 4.5625 -4.609375 C 4.550781 -5.003906 4.40625 -5.316406 4.125 -5.546875 C 3.84375 -5.773438 3.457031 -5.890625 2.96875 -5.890625 C 2.507812 -5.890625 2.144531 -5.796875 1.875 -5.609375 C 1.613281 -5.421875 1.484375 -5.171875 1.484375 -4.859375 C 1.484375 -4.597656 1.601562 -4.375 1.84375 -4.1875 C 2.09375 -4 2.535156 -3.828125 3.171875 -3.671875 C 4.003906 -3.472656 4.597656 -3.21875 4.953125 -2.90625 C 5.316406 -2.59375 5.5 -2.195312 5.5 -1.71875 C 5.5 -1.15625 5.285156 -0.707031 4.859375 -0.375 C 4.429688 -0.0390625 3.859375 0.125 3.140625 0.125 Z M 3.140625 0.125 "/></g></g></g><g fill="#000000" fill-opacity="1"><g transform="translate(172.169788, 250.139282)"><g><path d="M 2.53125 0 L 2.53125 -5.765625 L 0.3125 -5.765625 L 0.3125 -6.546875 L 5.5625 -6.546875 L 5.5625 -5.765625 L 3.359375 -5.765625 L 3.359375 0 Z M 2.53125 0 "/></g></g></g><g fill="#000000" fill-opacity="1"><g transform="translate(179.932171, 250.139282)"><g><path d="M 1.203125 0.078125 C 1.015625 0.078125 0.863281 0.0195312 0.75 -0.09375 C 0.632812 -0.21875 0.578125 -0.367188 0.578125 -0.546875 C 0.578125 -0.722656 0.632812 -0.867188 0.75 -0.984375 C 0.863281 -1.097656 1.015625 -1.15625 1.203125 -1.15625 C 1.390625 -1.15625 1.539062 -1.097656 1.65625 -0.984375 C 1.769531 -0.867188 1.828125 -0.722656 1.828125 -0.546875 C 1.828125 -0.367188 1.769531 -0.21875 1.65625 -0.09375 C 1.539062 0.0195312 1.390625 0.078125 1.203125 0.078125 Z M 1.203125 0.078125 "/></g></g></g><g fill="#000000" fill-opacity="1"><g transform="translate(184.206485, 250.139282)"><g/></g></g><g fill="#000000" fill-opacity="1"><g transform="translate(188.396638, 250.139282)"><g><path d="M 0.671875 0 L 0.671875 -0.625 L 3.390625 -3.109375 C 3.703125 -3.398438 3.929688 -3.671875 4.078125 -3.921875 C 4.234375 -4.179688 4.3125 -4.441406 4.3125 -4.703125 C 4.3125 -5.078125 4.179688 -5.378906 3.921875 -5.609375 C 3.671875 -5.835938 3.34375 -5.953125 2.9375 -5.953125 C 2.519531 -5.953125 2.179688 -5.820312 1.921875 -5.5625 C 1.660156 -5.3125 1.523438 -4.960938 1.515625 -4.515625 L 0.75 -4.515625 C 0.757812 -4.953125 0.851562 -5.332031 1.03125 -5.65625 C 1.21875 -5.976562 1.472656 -6.226562 1.796875 -6.40625 C 2.117188 -6.582031 2.492188 -6.671875 2.921875 -6.671875 C 3.347656 -6.671875 3.722656 -6.585938 4.046875 -6.421875 C 4.378906 -6.253906 4.632812 -6.019531 4.8125 -5.71875 C 5 -5.425781 5.09375 -5.085938 5.09375 -4.703125 C 5.09375 -4.335938 4.992188 -3.96875 4.796875 -3.59375 C 4.609375 -3.226562 4.3125 -2.859375 3.90625 -2.484375 L 2.015625 -0.765625 L 5.234375 -0.765625 L 5.234375 0 Z M 0.671875 0 "/></g></g></g><g fill="#000000" fill-opacity="1"><g transform="translate(196.261886, 250.139282)"><g><path d="M 3.28125 0.125 C 2.738281 0.125 2.265625 -0.0078125 1.859375 -0.28125 C 1.460938 -0.5625 1.15625 -0.957031 0.9375 -1.46875 C 0.726562 -1.976562 0.625 -2.582031 0.625 -3.28125 C 0.625 -3.976562 0.726562 -4.578125 0.9375 -5.078125 C 1.15625 -5.585938 1.460938 -5.976562 1.859375 -6.25 C 2.265625 -6.53125 2.738281 -6.671875 3.28125 -6.671875 C 3.820312 -6.671875 4.289062 -6.53125 4.6875 -6.25 C 5.082031 -5.976562 5.382812 -5.585938 5.59375 -5.078125 C 5.8125 -4.578125 5.921875 -3.976562 5.921875 -3.28125 C 5.921875 -2.582031 5.8125 -1.976562 5.59375 -1.46875 C 5.382812 -0.957031 5.082031 -0.5625 4.6875 -0.28125 C 4.289062 -0.0078125 3.820312 0.125 3.28125 0.125 Z M 1.4375 -3.28125 C 1.4375 -2.46875 1.597656 -1.828125 1.921875 -1.359375 C 2.253906 -0.898438 2.707031 -0.671875 3.28125 -0.671875 C 3.84375 -0.671875 4.285156 -0.898438 4.609375 -1.359375 C 4.929688 -1.828125 5.09375 -2.46875 5.09375 -3.28125 C 5.09375 -4.082031 4.929688 -4.710938 4.609375 -5.171875 C 4.285156 -5.640625 3.84375 -5.875 3.28125 -5.875 C 2.707031 -5.875 2.253906 -5.640625 1.921875 -5.171875 C 1.597656 -4.710938 1.4375 -4.082031 1.4375 -3.28125 Z M 1.4375 -3.28125 "/></g></g></g><g fill="#000000" fill-opacity="1"><g transform="translate(204.669525, 250.139282)"><g><path d="M 0.671875 0 L 0.671875 -0.625 L 3.390625 -3.109375 C 3.703125 -3.398438 3.929688 -3.671875 4.078125 -3.921875 C 4.234375 -4.179688 4.3125 -4.441406 4.3125 -4.703125 C 4.3125 -5.078125 4.179688 -5.378906 3.921875 -5.609375 C 3.671875 -5.835938 3.34375 -5.953125 2.9375 -5.953125 C 2.519531 -5.953125 2.179688 -5.820312 1.921875 -5.5625 C 1.660156 -5.3125 1.523438 -4.960938 1.515625 -4.515625 L 0.75 -4.515625 C 0.757812 -4.953125 0.851562 -5.332031 1.03125 -5.65625 C 1.21875 -5.976562 1.472656 -6.226562 1.796875 -6.40625 C 2.117188 -6.582031 2.492188 -6.671875 2.921875 -6.671875 C 3.347656 -6.671875 3.722656 -6.585938 4.046875 -6.421875 C 4.378906 -6.253906 4.632812 -6.019531 4.8125 -5.71875 C 5 -5.425781 5.09375 -5.085938 5.09375 -4.703125 C 5.09375 -4.335938 4.992188 -3.96875 4.796875 -3.59375 C 4.609375 -3.226562 4.3125 -2.859375 3.90625 -2.484375 L 2.015625 -0.765625 L 5.234375 -0.765625 L 5.234375 0 Z M 0.671875 0 "/></g></g></g><g fill="#000000" fill-opacity="1"><g transform="translate(212.534769, 250.139282)"><g><path d="M 0.34375 -1.390625 L 0.34375 -2.015625 L 2.703125 -6.546875 L 3.640625 -6.546875 L 1.34375 -2.15625 L 3.6875 -2.15625 L 3.75 -4.234375 L 4.5 -4.234375 L 4.5 -2.171875 L 5.375 -2.171875 L 5.375 -1.390625 L 4.5 -1.390625 L 4.5 0 L 3.671875 0 L 3.671875 -1.390625 Z M 0.34375 -1.390625 "/></g></g></g></svg>