<svg xmlns="http://www.w3.org/2000/svg" xmlns:xlink="http://www.w3.org/1999/xlink" width="500" zoomAndPan="magnify" viewBox="0 0 375 374.999991" height="500" preserveAspectRatio="xMidYMid meet" version="1.0"><defs><g/></defs><g fill="#ffffff" fill-opacity="1"><g transform="translate(25.643823, 217.756656)"><g><path d="M 34.828125 -50.921875 C 40.554688 -50.628906 44.9375 -49.1875 47.96875 -46.59375 C 51.007812 -44 52.019531 -40.320312 51 -35.5625 L 50.78125 -34.6875 L 35.703125 -34.6875 L 35.78125 -34.96875 C 35.96875 -35.550781 36.023438 -36.109375 35.953125 -36.640625 C 35.878906 -37.179688 35.707031 -37.671875 35.4375 -38.109375 C 35.175781 -38.546875 34.773438 -38.921875 34.234375 -39.234375 C 33.703125 -39.546875 33.050781 -39.773438 32.28125 -39.921875 Z M 26.296875 -50.5625 L 23.09375 -36.796875 C 22.90625 -35.921875 23.160156 -35.164062 23.859375 -34.53125 C 24.566406 -33.90625 25.5625 -33.421875 26.84375 -33.078125 C 28.132812 -32.734375 29.601562 -32.367188 31.25 -31.984375 C 32.90625 -31.597656 34.617188 -31.222656 36.390625 -30.859375 C 38.160156 -30.492188 39.832031 -29.929688 41.40625 -29.171875 C 42.988281 -28.421875 44.363281 -27.546875 45.53125 -26.546875 C 46.695312 -25.554688 47.523438 -24.210938 48.015625 -22.515625 C 48.503906 -20.816406 48.503906 -18.847656 48.015625 -16.609375 C 46.847656 -11.554688 44.476562 -7.617188 40.90625 -4.796875 C 37.34375 -1.984375 32.910156 -0.210938 27.609375 0.515625 L 30.96875 -13.984375 C 31.15625 -14.816406 30.894531 -15.535156 30.1875 -16.140625 C 29.488281 -16.742188 28.484375 -17.210938 27.171875 -17.546875 C 25.859375 -17.890625 24.363281 -18.253906 22.6875 -18.640625 C 21.019531 -19.035156 19.296875 -19.4375 17.515625 -19.84375 C 15.742188 -20.257812 14.066406 -20.859375 12.484375 -21.640625 C 10.910156 -22.421875 9.550781 -23.367188 8.40625 -24.484375 C 7.269531 -25.597656 6.484375 -27.03125 6.046875 -28.78125 C 5.609375 -30.53125 5.65625 -32.59375 6.1875 -34.96875 C 7.257812 -39.539062 9.59375 -43.097656 13.1875 -45.640625 C 16.78125 -48.191406 21.148438 -49.832031 26.296875 -50.5625 Z M 21.71875 -10.640625 L 19.09375 0.796875 C 16.90625 0.703125 14.9375 0.519531 13.1875 0.25 C 11.4375 -0.0078125 9.785156 -0.429688 8.234375 -1.015625 C 6.679688 -1.597656 5.378906 -2.335938 4.328125 -3.234375 C 3.285156 -4.140625 2.410156 -5.234375 1.703125 -6.515625 C 1.003906 -7.804688 0.65625 -9.3125 0.65625 -11.03125 C 0.65625 -12.757812 0.847656 -14.738281 1.234375 -16.96875 L 16.46875 -16.96875 C 16.03125 -15.375 16.015625 -14.113281 16.421875 -13.1875 C 16.835938 -12.257812 17.457031 -11.625 18.28125 -11.28125 C 19.113281 -10.945312 20.257812 -10.734375 21.71875 -10.640625 Z M 21.71875 -10.640625 "/></g></g></g><g fill="#ffffff" fill-opacity="1"><g transform="translate(78.245432, 217.756656)"><g><path d="M 27.984375 -50.125 L 16.46875 0 L 0.359375 0 L 11.875 -50.125 Z M 27.984375 -50.125 "/></g></g></g><g fill="#ffffff" fill-opacity="1"><g transform="translate(106.586185, 217.756656)"><g><path d="M 70.234375 -50.125 L 58.734375 0 L 42.78125 0 L 46.921875 -18.0625 C 47.265625 -19.476562 47.65625 -20.984375 48.09375 -22.578125 C 48.53125 -24.179688 48.953125 -25.640625 49.359375 -26.953125 C 49.773438 -28.265625 50.164062 -29.453125 50.53125 -30.515625 C 50.894531 -31.585938 51.195312 -32.441406 51.4375 -33.078125 L 51.734375 -33.953125 L 51.4375 -33.953125 L 34.390625 0 L 21.796875 0 L 20.265625 -33.875 L 19.96875 -33.875 C 19.582031 -28.382812 18.804688 -23.113281 17.640625 -18.0625 L 13.484375 0 L -1.3125 0 L 10.203125 -50.125 L 32.9375 -50.125 L 33.890625 -21.203125 L 34.171875 -21.203125 L 48.3125 -50.125 Z M 70.234375 -50.125 "/></g></g></g><g fill="#ffffff" fill-opacity="1"><g transform="translate(175.361694, 217.756656)"><g><path d="M 14.0625 -0.515625 C 9.101562 -2.066406 5.6875 -4.90625 3.8125 -9.03125 C 1.945312 -13.164062 1.765625 -18.507812 3.265625 -25.0625 C 4.773438 -31.625 7.425781 -36.96875 11.21875 -41.09375 C 15.007812 -45.21875 19.742188 -48.054688 25.421875 -49.609375 Z M 31.40625 -38.828125 L 34.171875 -51 L 36.28125 -51 C 44.925781 -51 51.09375 -48.785156 54.78125 -44.359375 C 58.476562 -39.941406 59.351562 -33.507812 57.40625 -25.0625 C 55.46875 -16.613281 51.628906 -10.175781 45.890625 -5.75 C 40.160156 -1.332031 32.972656 0.875 24.328125 0.875 C 23.359375 0.875 22.65625 0.847656 22.21875 0.796875 L 24.984375 -11.296875 C 25.859375 -11.191406 26.566406 -11.140625 27.109375 -11.140625 C 30.554688 -11.140625 33.429688 -12.179688 35.734375 -14.265625 C 38.046875 -16.359375 39.613281 -19.179688 40.4375 -22.734375 L 41.453125 -27.390625 C 42.285156 -30.941406 42.03125 -33.757812 40.6875 -35.84375 C 39.351562 -37.9375 36.960938 -38.984375 33.515625 -38.984375 C 32.984375 -38.984375 32.28125 -38.929688 31.40625 -38.828125 Z M 31.40625 -38.828125 "/></g></g></g><g fill="#ffffff" fill-opacity="1"><g transform="translate(236.050258, 217.756656)"><g><path d="M 61.140625 -50.125 L 49.625 0 L 35.5625 0 L 26.3125 -14.578125 L 31.984375 -39.34375 L 40.65625 -25.421875 L 46.34375 -50.125 Z M 20.109375 -24.328125 L 14.5 0 L -0.28125 0 L 11.21875 -50.125 L 25.28125 -50.125 L 25.875 -49.25 Z M 20.109375 -24.328125 "/></g></g></g><g fill="#ffffff" fill-opacity="1"><g transform="translate(296.738822, 217.756656)"><g><path d="M 15.8125 0 L -0.28125 0 L 11.21875 -50.125 L 27.328125 -50.125 Z M 24.265625 0 L 27.03125 -12.015625 L 46.34375 -12.015625 L 43.578125 0 Z M 35.78125 -50.125 L 54.578125 -50.125 L 51.8125 -38.109375 L 33.015625 -38.109375 Z M 28.78125 -19.671875 L 31.40625 -31.1875 L 46.265625 -31.1875 L 43.640625 -19.671875 Z M 28.78125 -19.671875 "/></g></g></g><g fill="#ffffff" fill-opacity="1"><g transform="translate(112.506248, 155.486942)"><g><path d="M 0.765625 0 L 2.9375 -10.796875 L 4.3125 -10.796875 L 2.15625 0 Z M 0.765625 0 "/></g></g></g><g fill="#ffffff" fill-opacity="1"><g transform="translate(122.363782, 155.486942)"><g/></g></g><g fill="#ffffff" fill-opacity="1"><g transform="translate(131.511908, 155.486942)"><g><path d="M 3.765625 0 L 1.625 -10.796875 L 2.984375 -10.796875 L 3.859375 -6.25 L 4.703125 -1.96875 L 7.21875 -6.25 L 9.953125 -10.796875 L 11.46875 -10.796875 L 5.03125 0 Z M 3.765625 0 "/></g></g></g><g fill="#ffffff" fill-opacity="1"><g transform="translate(147.214305, 155.486942)"><g><path d="M 0.765625 0 L 2.9375 -10.796875 L 9.484375 -10.796875 L 9.234375 -9.53125 L 4.0625 -9.53125 L 3.375 -6.125 L 8.15625 -6.125 L 7.90625 -4.875 L 3.125 -4.875 L 2.421875 -1.265625 L 7.734375 -1.265625 L 7.5 0 Z M 0.765625 0 "/></g></g></g><g fill="#ffffff" fill-opacity="1"><g transform="translate(161.837181, 155.486942)"><g><path d="M 0.765625 0 L 2.9375 -10.796875 L 4.3125 -10.796875 L 2.15625 0 Z M 0.765625 0 "/></g></g></g><g fill="#ffffff" fill-opacity="1"><g transform="translate(171.694715, 155.486942)"><g><path d="M 5.75 0.203125 C 4.664062 0.203125 3.738281 -0.0390625 2.96875 -0.53125 C 2.195312 -1.019531 1.648438 -1.691406 1.328125 -2.546875 C 1.015625 -3.410156 0.96875 -4.394531 1.1875 -5.5 C 1.414062 -6.582031 1.832031 -7.535156 2.4375 -8.359375 C 3.039062 -9.179688 3.785156 -9.828125 4.671875 -10.296875 C 5.566406 -10.765625 6.546875 -11 7.609375 -11 C 8.460938 -11 9.222656 -10.835938 9.890625 -10.515625 C 10.566406 -10.203125 11.113281 -9.753906 11.53125 -9.171875 C 11.945312 -8.597656 12.195312 -7.914062 12.28125 -7.125 L 10.859375 -7.125 C 10.734375 -7.90625 10.382812 -8.519531 9.8125 -8.96875 C 9.25 -9.414062 8.53125 -9.640625 7.65625 -9.640625 C 6.820312 -9.640625 6.046875 -9.453125 5.328125 -9.078125 C 4.617188 -8.703125 4.023438 -8.1875 3.546875 -7.53125 C 3.066406 -6.875 2.742188 -6.128906 2.578125 -5.296875 C 2.410156 -4.484375 2.429688 -3.765625 2.640625 -3.140625 C 2.859375 -2.515625 3.234375 -2.023438 3.765625 -1.671875 C 4.296875 -1.328125 4.957031 -1.15625 5.75 -1.15625 C 6.363281 -1.15625 6.953125 -1.257812 7.515625 -1.46875 C 8.085938 -1.6875 8.609375 -1.992188 9.078125 -2.390625 C 9.546875 -2.785156 9.929688 -3.253906 10.234375 -3.796875 L 11.71875 -3.796875 C 11.34375 -2.941406 10.847656 -2.210938 10.234375 -1.609375 C 9.617188 -1.015625 8.925781 -0.5625 8.15625 -0.25 C 7.394531 0.0507812 6.59375 0.203125 5.75 0.203125 Z M 5.75 0.203125 "/></g></g></g><g fill="#ffffff" fill-opacity="1"><g transform="translate(189.617849, 155.486942)"><g><path d="M 5.734375 0.203125 C 4.628906 0.203125 3.695312 -0.0390625 2.9375 -0.53125 C 2.175781 -1.019531 1.640625 -1.691406 1.328125 -2.546875 C 1.015625 -3.398438 0.96875 -4.378906 1.1875 -5.484375 C 1.40625 -6.578125 1.828125 -7.535156 2.453125 -8.359375 C 3.078125 -9.191406 3.847656 -9.835938 4.765625 -10.296875 C 5.691406 -10.765625 6.691406 -11 7.765625 -11 C 8.890625 -11 9.828125 -10.753906 10.578125 -10.265625 C 11.335938 -9.773438 11.875 -9.101562 12.1875 -8.25 C 12.507812 -7.394531 12.5625 -6.414062 12.34375 -5.3125 C 12.125 -4.21875 11.695312 -3.253906 11.0625 -2.421875 C 10.4375 -1.597656 9.664062 -0.953125 8.75 -0.484375 C 7.832031 -0.0234375 6.828125 0.203125 5.734375 0.203125 Z M 2.5625 -5.3125 C 2.394531 -4.488281 2.421875 -3.757812 2.640625 -3.125 C 2.859375 -2.5 3.238281 -2.015625 3.78125 -1.671875 C 4.320312 -1.328125 5 -1.15625 5.8125 -1.15625 C 6.65625 -1.15625 7.429688 -1.335938 8.140625 -1.703125 C 8.859375 -2.078125 9.460938 -2.585938 9.953125 -3.234375 C 10.453125 -3.890625 10.785156 -4.640625 10.953125 -5.484375 C 11.128906 -6.316406 11.101562 -7.046875 10.875 -7.671875 C 10.65625 -8.296875 10.273438 -8.78125 9.734375 -9.125 C 9.191406 -9.46875 8.515625 -9.640625 7.703125 -9.640625 C 6.867188 -9.640625 6.085938 -9.453125 5.359375 -9.078125 C 4.640625 -8.710938 4.035156 -8.203125 3.546875 -7.546875 C 3.066406 -6.898438 2.738281 -6.15625 2.5625 -5.3125 Z M 2.5625 -5.3125 "/></g></g></g><g fill="#ffffff" fill-opacity="1"><g transform="translate(207.895694, 155.486942)"><g><path d="M 0.765625 0 L 2.9375 -10.796875 L 4.3125 -10.796875 L 2.421875 -1.296875 L 7.640625 -1.296875 L 7.375 0 Z M 0.765625 0 "/></g></g></g><g fill="#ffffff" fill-opacity="1"><g transform="translate(221.870845, 155.486942)"><g><path d="M 0.765625 0 L 2.9375 -10.796875 L 4.3125 -10.796875 L 2.15625 0 Z M 0.765625 0 "/></g></g></g><g fill="#ffffff" fill-opacity="1"><g transform="translate(231.728385, 155.486942)"><g/></g></g><g fill="#ffffff" fill-opacity="1"><g transform="translate(240.876517, 155.486942)"><g><path d="M 0.765625 0 L 2.9375 -10.796875 L 6.59375 -10.796875 C 7.6875 -10.796875 8.609375 -10.554688 9.359375 -10.078125 C 10.109375 -9.609375 10.640625 -8.957031 10.953125 -8.125 C 11.265625 -7.289062 11.316406 -6.335938 11.109375 -5.265625 C 10.910156 -4.222656 10.5 -3.304688 9.875 -2.515625 C 9.25 -1.722656 8.476562 -1.101562 7.5625 -0.65625 C 6.65625 -0.21875 5.648438 0 4.546875 0 Z M 2.421875 -1.296875 L 4.640625 -1.296875 C 5.484375 -1.296875 6.257812 -1.472656 6.96875 -1.828125 C 7.675781 -2.179688 8.269531 -2.671875 8.75 -3.296875 C 9.238281 -3.929688 9.566406 -4.660156 9.734375 -5.484375 C 9.898438 -6.296875 9.875 -7 9.65625 -7.59375 C 9.4375 -8.195312 9.054688 -8.664062 8.515625 -9 C 7.972656 -9.332031 7.289062 -9.5 6.46875 -9.5 L 4.0625 -9.5 Z M 2.421875 -1.296875 "/></g></g></g><g fill="#ffffff" fill-opacity="1"><g transform="translate(257.951467, 155.486942)"><g><path d="M 0.765625 0 L 2.9375 -10.796875 L 4.3125 -10.796875 L 2.15625 0 Z M 0.765625 0 "/></g></g></g></svg>