<svg xmlns="http://www.w3.org/2000/svg" xmlns:xlink="http://www.w3.org/1999/xlink" width="500" zoomAndPan="magnify" viewBox="0 0 375 374.999991" height="500" preserveAspectRatio="xMidYMid meet" version="1.0"><defs><g/><clipPath id="f550ee1f62"><path d="M 66 246 L 149.332031 246 L 149.332031 249 L 66 249 Z M 66 246 " clip-rule="nonzero"/></clipPath><clipPath id="032591080d"><path d="M 54.101562 244.785156 L 149.332031 244.785156 L 149.332031 250.785156 L 54.101562 250.785156 Z M 54.101562 244.785156 " clip-rule="nonzero"/></clipPath><clipPath id="4a60e9bcd7"><path d="M 225.664062 247 L 309 247 L 309 250 L 225.664062 250 Z M 225.664062 247 " clip-rule="nonzero"/></clipPath><clipPath id="f64f98dfb9"><path d="M 225.664062 245.03125 L 320.898438 245.03125 L 320.898438 251.03125 L 225.664062 251.03125 Z M 225.664062 245.03125 " clip-rule="nonzero"/></clipPath><clipPath id="2de2333368"><path d="M 45.75 170 L 139 170 L 139 193.792969 L 45.75 193.792969 Z M 45.75 170 " clip-rule="nonzero"/></clipPath><clipPath id="e51644828a"><path d="M 50 129.292969 L 329.25 129.292969 L 329.25 182 L 50 182 Z M 50 129.292969 " clip-rule="nonzero"/></clipPath></defs><g clip-path="url(#f550ee1f62)"><path fill="#ffffff" d="M 66.734375 248.375 L 250.472656 248.375 L 250.472656 246.316406 Z M 66.734375 248.375 " fill-opacity="1" fill-rule="nonzero"/></g><g clip-path="url(#032591080d)"><path fill="#ffffff" d="M 264.484375 257.484375 L 251.742188 257.484375 L 249.777344 253.542969 L 54.101562 253.542969 L 248.523438 253.542969 L 250.714844 251.898438 L 252.667969 255.289062 L 261.019531 255.289062 L 254.054688 242.679688 L 79.925781 242.679688 L 254.988281 241.046875 L 264.484375 257.484375 " fill-opacity="1" fill-rule="nonzero"/></g><g clip-path="url(#4a60e9bcd7)"><path fill="#ffffff" d="M 308.261719 247.4375 L 124.523438 247.4375 L 124.523438 249.5 Z M 308.261719 247.4375 " fill-opacity="1" fill-rule="nonzero"/></g><g clip-path="url(#f64f98dfb9)"><path fill="#ffffff" d="M 110.511719 238.332031 L 123.257812 238.332031 L 125.21875 242.273438 L 320.898438 242.273438 L 126.472656 242.273438 L 124.285156 243.917969 L 122.328125 240.527344 L 113.976562 240.527344 L 120.945312 253.136719 L 295.074219 253.136719 L 120.007812 254.769531 L 110.511719 238.332031 " fill-opacity="1" fill-rule="nonzero"/></g><g clip-path="url(#2de2333368)"><path fill="#ffffff" d="M 138.933594 188.363281 C 105.300781 191.039062 82.34375 187.855469 68.914062 184.667969 C 71.957031 184.675781 75 184.589844 77.949219 184.4375 C 80.753906 184.292969 83.542969 184.085938 86.320312 183.839844 C 88.644531 183.632812 92.9375 183.207031 95.527344 182.867188 C 90.335938 182.027344 85.203125 180.964844 80.167969 179.808594 C 75.699219 178.78125 71.28125 177.644531 67.019531 176.316406 C 63.601562 175.253906 60.503906 173.851562 57.351562 172.527344 C 54.714844 171.417969 50.945312 169.5 48.03125 171.171875 C 45.765625 172.46875 45.742188 175.136719 45.933594 176.90625 C 46.484375 181.902344 53.957031 184.859375 57.898438 186.652344 C 62.703125 188.839844 67.8125 190.320312 72.984375 191.34375 C 83.621094 193.441406 94.589844 193.6875 105.386719 193.074219 C 114.011719 192.574219 122.570312 191.542969 131.066406 189.980469 C 133.625 189.515625 136.277344 188.945312 138.933594 188.363281 Z M 138.933594 188.363281 " fill-opacity="1" fill-rule="nonzero"/></g><g clip-path="url(#e51644828a)"><path fill="#ffffff" d="M 325.957031 163.15625 C 324.355469 162.421875 322.714844 161.726562 321.035156 161.074219 C 319.050781 160.304688 317.027344 159.589844 314.964844 158.933594 C 309.859375 157.324219 304.671875 156.058594 299.402344 155.132812 C 294.039062 154.195312 288.636719 153.53125 283.207031 153.140625 C 281.84375 153.046875 280.480469 152.941406 279.117188 152.878906 L 277.070312 152.769531 L 275.019531 152.691406 C 274.335938 152.667969 273.652344 152.640625 272.96875 152.625 L 270.921875 152.585938 C 269.554688 152.550781 268.191406 152.554688 266.824219 152.546875 C 266.140625 152.539062 265.457031 152.542969 264.773438 152.550781 L 262.726562 152.5625 C 261.363281 152.578125 260.003906 152.609375 258.640625 152.632812 L 254.558594 152.761719 C 253.199219 152.816406 251.839844 152.863281 250.484375 152.925781 C 247.769531 153.050781 245.0625 153.191406 242.359375 153.347656 C 241.011719 153.425781 239.660156 153.511719 238.3125 153.601562 L 234.269531 153.871094 C 223.492188 154.597656 212.757812 155.5 202.058594 156.402344 C 191.359375 157.304688 180.6875 158.226562 170.03125 158.988281 C 164.703125 159.382812 159.378906 159.726562 154.058594 160.019531 C 148.738281 160.3125 143.421875 160.558594 138.109375 160.714844 C 132.796875 160.871094 127.488281 160.984375 122.191406 160.960938 C 121.53125 160.960938 120.867188 160.964844 120.207031 160.960938 L 118.222656 160.9375 C 116.898438 160.921875 115.574219 160.921875 114.253906 160.878906 L 110.292969 160.785156 L 106.335938 160.640625 C 102.167969 160.464844 98.011719 160.21875 93.867188 159.90625 C 95.242188 159.367188 96.597656 158.8125 97.9375 158.242188 C 104.933594 155.261719 111.453125 151.953125 117.933594 148.816406 C 124.414062 145.675781 130.863281 142.691406 137.621094 140.355469 C 138.464844 140.070312 139.308594 139.777344 140.164062 139.515625 C 140.589844 139.378906 141.015625 139.238281 141.445312 139.113281 L 142.738281 138.742188 C 143.605469 138.496094 144.464844 138.238281 145.347656 138.03125 L 146.667969 137.699219 C 147.105469 137.589844 147.542969 137.46875 147.988281 137.378906 L 150.660156 136.792969 L 153.367188 136.285156 C 153.59375 136.246094 153.816406 136.199219 154.046875 136.164062 L 154.730469 136.058594 L 156.097656 135.84375 C 156.554688 135.777344 157.007812 135.695312 157.46875 135.640625 L 158.851562 135.46875 L 160.230469 135.292969 C 160.691406 135.238281 161.160156 135.203125 161.621094 135.152344 L 163.015625 135.019531 L 163.710938 134.953125 L 164.410156 134.902344 C 165.34375 134.835938 166.277344 134.757812 167.214844 134.703125 L 170.027344 134.574219 C 173.789062 134.441406 177.574219 134.480469 181.363281 134.636719 C 182.308594 134.683594 183.257812 134.714844 184.203125 134.777344 L 187.042969 134.96875 C 188.933594 135.132812 190.828125 135.296875 192.71875 135.519531 C 196.496094 135.945312 200.265625 136.460938 204.011719 137.105469 C 211.5 138.394531 218.917969 140.046875 226.214844 142.003906 C 233.527344 143.9375 240.707031 146.1875 247.835938 148.574219 C 244.507812 147.046875 241.121094 145.585938 237.675781 144.195312 C 234.238281 142.796875 230.734375 141.488281 227.183594 140.238281 C 219.96875 137.703125 212.636719 135.5625 205.191406 133.820312 C 197.519531 132.023438 189.761719 130.757812 181.914062 130.023438 C 177.945312 129.664062 173.941406 129.464844 169.90625 129.425781 C 165.878906 129.386719 161.832031 129.546875 157.804688 129.902344 L 156.292969 130.035156 C 155.789062 130.074219 155.289062 130.148438 154.785156 130.199219 L 153.277344 130.378906 L 152.527344 130.464844 C 152.273438 130.496094 152.027344 130.539062 151.777344 130.574219 L 148.78125 131.019531 L 145.804688 131.554688 C 145.304688 131.636719 144.816406 131.75 144.324219 131.851562 L 142.851562 132.167969 C 141.867188 132.367188 140.902344 132.621094 139.929688 132.863281 L 138.472656 133.226562 C 137.992188 133.355469 137.515625 133.492188 137.035156 133.625 C 136.070312 133.886719 135.128906 134.175781 134.183594 134.464844 C 133.710938 134.605469 133.25 134.761719 132.78125 134.910156 C 132.3125 135.0625 131.847656 135.210938 131.386719 135.371094 C 130.46875 135.691406 129.535156 135.996094 128.632812 136.332031 L 127.273438 136.832031 L 125.925781 137.339844 C 125.023438 137.679688 124.144531 138.039062 123.257812 138.390625 C 119.730469 139.8125 116.308594 141.316406 112.945312 142.84375 L 102.976562 147.40625 C 99.683594 148.902344 96.394531 150.34375 93.085938 151.695312 C 89.773438 153.039062 86.425781 154.257812 83.039062 155.324219 C 79.648438 156.378906 76.210938 157.234375 72.722656 157.890625 L 50.375 162.089844 L 72.980469 165.484375 C 78.398438 166.296875 83.839844 166.960938 89.3125 167.476562 C 94.78125 167.992188 100.269531 168.332031 105.75 168.574219 C 116.726562 169.023438 127.695312 168.96875 138.589844 168.539062 C 160.402344 167.695312 181.90625 165.472656 203.226562 163.101562 C 206.570312 162.730469 209.910156 162.355469 213.25 161.980469 C 208.605469 162.941406 203.980469 163.945312 199.371094 164.988281 L 183.457031 168.648438 C 178.164062 169.878906 172.867188 171.066406 167.570312 172.207031 L 163.59375 173.054688 C 162.265625 173.335938 160.941406 173.609375 159.613281 173.875 L 155.625 174.671875 L 153.632812 175.066406 L 151.660156 175.433594 C 146.390625 176.367188 141.054688 177.042969 135.691406 177.492188 C 124.898438 178.359375 114.101562 178.421875 103.300781 177.679688 C 92.4375 176.949219 81.671875 175.507812 71 173.359375 C 81.382812 176.648438 92.132812 178.910156 103.015625 180.359375 C 113.964844 181.796875 124.957031 182.277344 135.992188 181.804688 C 141.523438 181.558594 147.03125 181.027344 152.511719 180.210938 L 154.566406 179.886719 L 156.589844 179.542969 C 157.941406 179.320312 159.289062 179.082031 160.636719 178.832031 C 161.984375 178.59375 163.332031 178.34375 164.675781 178.085938 L 168.703125 177.308594 C 174.074219 176.261719 179.414062 175.105469 184.742188 173.945312 L 200.679688 170.359375 C 205.980469 169.152344 211.273438 167.96875 216.578125 166.863281 C 221.875 165.734375 227.183594 164.710938 232.507812 163.789062 C 237.828125 162.855469 243.171875 162.070312 248.53125 161.398438 L 252.554688 160.929688 L 256.585938 160.523438 L 260.621094 160.167969 L 264.664062 159.871094 L 268.714844 159.632812 L 272.769531 159.445312 C 275.484375 159.335938 278.199219 159.253906 280.910156 159.179688 C 286.335938 159.046875 291.753906 159.027344 297.164062 159.222656 C 305.183594 159.492188 313.203125 160.304688 321.070312 161.988281 C 323.839844 162.804688 326.558594 163.726562 329.230469 164.75 C 328.160156 164.199219 327.070312 163.667969 325.957031 163.15625 Z M 325.957031 163.15625 " fill-opacity="1" fill-rule="nonzero"/></g><path fill="#ffffff" d="M 260.207031 190.746094 C 260.890625 187.324219 262.167969 184.136719 264.039062 181.191406 C 265.9375 178.183594 268.28125 175.582031 271.070312 173.378906 C 273.898438 171.148438 277.019531 169.453125 280.425781 168.292969 C 281.273438 168.003906 282.144531 167.785156 283.003906 167.535156 C 283.878906 167.339844 284.757812 167.171875 285.636719 166.992188 C 286.527344 166.875 287.417969 166.78125 288.308594 166.675781 L 289.652344 166.601562 C 290.101562 166.585938 290.546875 166.589844 290.996094 166.582031 C 292.796875 166.597656 294.582031 166.757812 296.355469 167.0625 C 298.125 167.375 299.855469 167.832031 301.550781 168.429688 C 304.945312 169.632812 308.039062 171.367188 310.839844 173.636719 C 313.605469 175.875 315.914062 178.507812 317.769531 181.542969 C 319.597656 184.519531 320.824219 187.726562 321.453125 191.160156 C 320.75 189.628906 319.957031 188.144531 319.066406 186.707031 C 318.195312 185.300781 317.226562 183.957031 316.167969 182.683594 C 314.078125 180.167969 311.675781 177.992188 308.964844 176.164062 C 307.644531 175.269531 306.261719 174.476562 304.824219 173.785156 C 303.386719 173.09375 301.90625 172.511719 300.382812 172.039062 C 298.859375 171.566406 297.308594 171.207031 295.730469 170.964844 C 294.15625 170.71875 292.570312 170.59375 290.972656 170.582031 C 289.378906 170.570312 287.789062 170.675781 286.210938 170.902344 C 284.632812 171.125 283.074219 171.460938 281.546875 171.914062 C 280.015625 172.367188 278.527344 172.929688 277.082031 173.601562 C 275.632812 174.273438 274.242188 175.046875 272.910156 175.921875 C 270.175781 177.71875 267.746094 179.859375 265.621094 182.347656 C 263.445312 184.90625 261.640625 187.707031 260.207031 190.746094 Z M 260.207031 190.746094 " fill-opacity="1" fill-rule="nonzero"/><g fill="#ffffff" fill-opacity="1"><g transform="translate(90.058938, 235.570272)"><g><path d="M 13.140625 0.703125 C 8.804688 0.703125 5.585938 -0.285156 3.484375 -2.265625 C 1.378906 -4.242188 0.6875 -6.976562 1.40625 -10.46875 L 10.328125 -10.46875 C 9.960938 -7.914062 11.148438 -6.640625 13.890625 -6.640625 C 15.046875 -6.640625 15.988281 -6.863281 16.71875 -7.3125 C 17.445312 -7.769531 17.890625 -8.40625 18.046875 -9.21875 C 18.265625 -10.238281 18 -11.082031 17.25 -11.75 C 16.507812 -12.425781 15.21875 -12.90625 13.375 -13.1875 C 10.070312 -13.75 7.546875 -14.976562 5.796875 -16.875 C 4.054688 -18.78125 3.476562 -21.242188 4.0625 -24.265625 C 4.625 -27.109375 6.066406 -29.347656 8.390625 -30.984375 C 10.710938 -32.617188 13.867188 -33.4375 17.859375 -33.4375 C 20.578125 -33.4375 22.851562 -32.984375 24.6875 -32.078125 C 26.53125 -31.171875 27.878906 -29.898438 28.734375 -28.265625 C 29.597656 -26.628906 29.875 -24.707031 29.5625 -22.5 L 20.578125 -22.5 C 20.796875 -23.488281 20.625 -24.359375 20.0625 -25.109375 C 19.5 -25.859375 18.5 -26.234375 17.0625 -26.234375 C 16.007812 -26.234375 15.140625 -26.003906 14.453125 -25.546875 C 13.765625 -25.097656 13.34375 -24.515625 13.1875 -23.796875 C 12.96875 -22.742188 13.238281 -21.910156 14 -21.296875 C 14.769531 -20.691406 16.101562 -20.1875 18 -19.78125 C 21.5625 -19.0625 24.164062 -17.742188 25.8125 -15.828125 C 27.46875 -13.910156 28.015625 -11.535156 27.453125 -8.703125 C 26.859375 -5.796875 25.34375 -3.5 22.90625 -1.8125 C 20.476562 -0.132812 17.222656 0.703125 13.140625 0.703125 Z M 13.140625 0.703125 "/></g></g></g><g fill="#ffffff" fill-opacity="1"><g transform="translate(119.89928, 235.570272)"><g><path d="M 1.03125 0 L 7.578125 -32.734375 L 17.15625 -32.734375 L 10.609375 0 Z M 1.03125 0 "/></g></g></g><g fill="#ffffff" fill-opacity="1"><g transform="translate(136.45646, 235.570272)"><g><path d="M 1.03125 0 L 7.578125 -32.734375 L 14.6875 -32.734375 L 22.546875 -17.15625 L 36.671875 -32.734375 L 45.125 -32.734375 L 38.578125 0 L 29.046875 0 L 30.8125 -8.75 L 32.359375 -16.5625 L 24.40625 -7.765625 L 18.328125 -7.765625 L 13.84375 -16.65625 L 12.25 -8.75 L 10.515625 0 Z M 1.03125 0 "/></g></g></g><g fill="#ffffff" fill-opacity="1"><g transform="translate(180.983113, 235.570272)"><g><path d="M 17.625 0.703125 C 14.007812 0.703125 10.953125 -0.0546875 8.453125 -1.578125 C 5.960938 -3.109375 4.179688 -5.207031 3.109375 -7.875 C 2.035156 -10.539062 1.84375 -13.601562 2.53125 -17.0625 C 3 -19.46875 3.847656 -21.675781 5.078125 -23.6875 C 6.304688 -25.695312 7.816406 -27.425781 9.609375 -28.875 C 11.398438 -30.320312 13.414062 -31.441406 15.65625 -32.234375 C 17.90625 -33.035156 20.28125 -33.4375 22.78125 -33.4375 C 26.425781 -33.4375 29.492188 -32.671875 31.984375 -31.140625 C 34.484375 -29.617188 36.269531 -27.523438 37.34375 -24.859375 C 38.414062 -22.191406 38.609375 -19.128906 37.921875 -15.671875 C 37.453125 -13.265625 36.601562 -11.054688 35.375 -9.046875 C 34.144531 -7.035156 32.625 -5.304688 30.8125 -3.859375 C 29.007812 -2.410156 26.992188 -1.285156 24.765625 -0.484375 C 22.535156 0.304688 20.15625 0.703125 17.625 0.703125 Z M 12.015625 -16.328125 C 11.515625 -13.859375 11.875 -11.859375 13.09375 -10.328125 C 14.3125 -8.804688 16.117188 -8.046875 18.515625 -8.046875 C 20.140625 -8.046875 21.632812 -8.394531 23 -9.09375 C 24.375 -9.789062 25.546875 -10.769531 26.515625 -12.03125 C 27.484375 -13.300781 28.125 -14.765625 28.4375 -16.421875 C 28.9375 -18.878906 28.578125 -20.867188 27.359375 -22.390625 C 26.140625 -23.921875 24.332031 -24.6875 21.9375 -24.6875 C 20.3125 -24.6875 18.804688 -24.335938 17.421875 -23.640625 C 16.035156 -22.941406 14.875 -21.957031 13.9375 -20.6875 C 13 -19.425781 12.359375 -17.972656 12.015625 -16.328125 Z M 12.015625 -16.328125 "/></g></g></g><g fill="#ffffff" fill-opacity="1"><g transform="translate(219.850383, 235.570272)"><g><path d="M 1.03125 0 L 7.578125 -32.734375 L 14.828125 -32.734375 L 24.3125 -15.90625 L 25.15625 -20.203125 L 27.6875 -32.734375 L 36.984375 -32.734375 L 30.4375 0 L 23.203125 0 L 13.703125 -16.78125 L 12.859375 -12.4375 L 10.328125 0 Z M 1.03125 0 "/></g></g></g><g fill="#ffffff" fill-opacity="1"><g transform="translate(256.285524, 235.570272)"><g><path d="M 1.03125 0 L 7.578125 -32.734375 L 30.0625 -32.734375 L 28.578125 -25.109375 L 15.53125 -25.109375 L 14.59375 -20.34375 L 26.328125 -20.34375 L 24.78125 -12.765625 L 13.09375 -12.765625 L 12.0625 -7.71875 L 25.578125 -7.71875 L 24.03125 0 Z M 1.03125 0 "/></g></g></g><g fill="#ffffff" fill-opacity="1"><g transform="translate(144.609088, 194.694316)"><g><path d="M 0.4375 0 L 1.671875 -6.1875 L 2.46875 -6.1875 L 1.234375 0 Z M 0.4375 0 "/></g></g></g><g fill="#ffffff" fill-opacity="1"><g transform="translate(150.24648, 194.694316)"><g/></g></g><g fill="#ffffff" fill-opacity="1"><g transform="translate(155.478386, 194.694316)"><g><path d="M 2.15625 0 L 0.921875 -6.1875 L 1.71875 -6.1875 L 2.203125 -3.578125 L 2.6875 -1.125 L 4.125 -3.578125 L 5.6875 -6.1875 L 6.5625 -6.1875 L 2.875 0 Z M 2.15625 0 "/></g></g></g><g fill="#ffffff" fill-opacity="1"><g transform="translate(164.456672, 194.694316)"><g><path d="M 0.4375 0 L 1.671875 -6.1875 L 5.421875 -6.1875 L 5.28125 -5.453125 L 2.328125 -5.453125 L 1.9375 -3.5 L 4.671875 -3.5 L 4.53125 -2.796875 L 1.796875 -2.796875 L 1.390625 -0.71875 L 4.4375 -0.71875 L 4.296875 0 Z M 0.4375 0 "/></g></g></g><g fill="#ffffff" fill-opacity="1"><g transform="translate(172.817914, 194.694316)"><g><path d="M 0.4375 0 L 1.671875 -6.1875 L 2.46875 -6.1875 L 1.234375 0 Z M 0.4375 0 "/></g></g></g><g fill="#ffffff" fill-opacity="1"><g transform="translate(178.455307, 194.694316)"><g><path d="M 3.296875 0.109375 C 2.671875 0.109375 2.140625 -0.0234375 1.703125 -0.296875 C 1.265625 -0.578125 0.953125 -0.960938 0.765625 -1.453125 C 0.585938 -1.953125 0.5625 -2.519531 0.6875 -3.15625 C 0.8125 -3.769531 1.046875 -4.3125 1.390625 -4.78125 C 1.742188 -5.25 2.171875 -5.617188 2.671875 -5.890625 C 3.179688 -6.160156 3.742188 -6.296875 4.359375 -6.296875 C 4.835938 -6.296875 5.269531 -6.203125 5.65625 -6.015625 C 6.039062 -5.835938 6.351562 -5.582031 6.59375 -5.25 C 6.832031 -4.925781 6.976562 -4.535156 7.03125 -4.078125 L 6.21875 -4.078125 C 6.144531 -4.523438 5.945312 -4.875 5.625 -5.125 C 5.300781 -5.382812 4.882812 -5.515625 4.375 -5.515625 C 3.894531 -5.515625 3.453125 -5.40625 3.046875 -5.1875 C 2.648438 -4.976562 2.3125 -4.6875 2.03125 -4.3125 C 1.75 -3.9375 1.5625 -3.507812 1.46875 -3.03125 C 1.375 -2.5625 1.390625 -2.148438 1.515625 -1.796875 C 1.640625 -1.441406 1.851562 -1.160156 2.15625 -0.953125 C 2.457031 -0.753906 2.835938 -0.65625 3.296875 -0.65625 C 3.648438 -0.65625 3.988281 -0.71875 4.3125 -0.84375 C 4.632812 -0.96875 4.925781 -1.144531 5.1875 -1.375 C 5.457031 -1.601562 5.679688 -1.867188 5.859375 -2.171875 L 6.703125 -2.171875 C 6.484375 -1.679688 6.195312 -1.265625 5.84375 -0.921875 C 5.5 -0.585938 5.109375 -0.332031 4.671875 -0.15625 C 4.234375 0.0195312 3.773438 0.109375 3.296875 0.109375 Z M 3.296875 0.109375 "/></g></g></g><g fill="#ffffff" fill-opacity="1"><g transform="translate(188.70296, 194.694316)"><g><path d="M 3.28125 0.109375 C 2.644531 0.109375 2.109375 -0.0234375 1.671875 -0.296875 C 1.242188 -0.578125 0.941406 -0.960938 0.765625 -1.453125 C 0.585938 -1.941406 0.5625 -2.503906 0.6875 -3.140625 C 0.800781 -3.765625 1.035156 -4.3125 1.390625 -4.78125 C 1.753906 -5.257812 2.195312 -5.628906 2.71875 -5.890625 C 3.25 -6.160156 3.828125 -6.296875 4.453125 -6.296875 C 5.085938 -6.296875 5.617188 -6.15625 6.046875 -5.875 C 6.484375 -5.59375 6.789062 -5.207031 6.96875 -4.71875 C 7.15625 -4.226562 7.1875 -3.664062 7.0625 -3.03125 C 6.9375 -2.40625 6.691406 -1.859375 6.328125 -1.390625 C 5.972656 -0.921875 5.53125 -0.550781 5 -0.28125 C 4.476562 -0.0195312 3.90625 0.109375 3.28125 0.109375 Z M 1.46875 -3.03125 C 1.375 -2.5625 1.382812 -2.144531 1.5 -1.78125 C 1.625 -1.425781 1.84375 -1.148438 2.15625 -0.953125 C 2.46875 -0.753906 2.859375 -0.65625 3.328125 -0.65625 C 3.804688 -0.65625 4.25 -0.757812 4.65625 -0.96875 C 5.070312 -1.1875 5.421875 -1.484375 5.703125 -1.859375 C 5.984375 -2.234375 6.171875 -2.660156 6.265625 -3.140625 C 6.367188 -3.617188 6.351562 -4.035156 6.21875 -4.390625 C 6.09375 -4.742188 5.875 -5.019531 5.5625 -5.21875 C 5.257812 -5.414062 4.878906 -5.515625 4.421875 -5.515625 C 3.929688 -5.515625 3.476562 -5.40625 3.0625 -5.1875 C 2.65625 -4.976562 2.3125 -4.6875 2.03125 -4.3125 C 1.75 -3.945312 1.5625 -3.519531 1.46875 -3.03125 Z M 1.46875 -3.03125 "/></g></g></g><g fill="#ffffff" fill-opacity="1"><g transform="translate(199.153355, 194.694316)"><g><path d="M 0.4375 0 L 1.671875 -6.1875 L 2.46875 -6.1875 L 1.390625 -0.734375 L 4.375 -0.734375 L 4.21875 0 Z M 0.4375 0 "/></g></g></g><g fill="#ffffff" fill-opacity="1"><g transform="translate(207.144362, 194.694316)"><g><path d="M 0.4375 0 L 1.671875 -6.1875 L 2.46875 -6.1875 L 1.234375 0 Z M 0.4375 0 "/></g></g></g><g fill="#ffffff" fill-opacity="1"><g transform="translate(212.781755, 194.694316)"><g/></g></g><g fill="#ffffff" fill-opacity="1"><g transform="translate(218.013662, 194.694316)"><g><path d="M 0.4375 0 L 1.671875 -6.1875 L 3.78125 -6.1875 C 4.40625 -6.1875 4.929688 -6.050781 5.359375 -5.78125 C 5.785156 -5.507812 6.085938 -5.132812 6.265625 -4.65625 C 6.453125 -4.175781 6.484375 -3.628906 6.359375 -3.015625 C 6.242188 -2.421875 6.007812 -1.894531 5.65625 -1.4375 C 5.300781 -0.988281 4.859375 -0.632812 4.328125 -0.375 C 3.804688 -0.125 3.234375 0 2.609375 0 Z M 1.390625 -0.734375 L 2.65625 -0.734375 C 3.132812 -0.734375 3.578125 -0.832031 3.984375 -1.03125 C 4.390625 -1.238281 4.726562 -1.523438 5 -1.890625 C 5.28125 -2.253906 5.472656 -2.671875 5.578125 -3.140625 C 5.671875 -3.609375 5.65625 -4.007812 5.53125 -4.34375 C 5.40625 -4.6875 5.1875 -4.953125 4.875 -5.140625 C 4.5625 -5.335938 4.171875 -5.4375 3.703125 -5.4375 L 2.328125 -5.4375 Z M 1.390625 -0.734375 "/></g></g></g><g fill="#ffffff" fill-opacity="1"><g transform="translate(227.776488, 194.694316)"><g><path d="M 0.4375 0 L 1.671875 -6.1875 L 2.46875 -6.1875 L 1.234375 0 Z M 0.4375 0 "/></g></g></g><g fill="#ffffff" fill-opacity="1"><g transform="translate(156.738527, 250.139282)"><g><path d="M 0.953125 0 L 0.953125 -6.546875 L 4.9375 -6.546875 L 4.9375 -5.78125 L 1.78125 -5.78125 L 1.78125 -3.71875 L 4.703125 -3.71875 L 4.703125 -2.953125 L 1.78125 -2.953125 L 1.78125 -0.765625 L 5.03125 -0.765625 L 5.03125 0 Z M 0.953125 0 "/></g></g></g><g fill="#ffffff" fill-opacity="1"><g transform="translate(164.24843, 250.139282)"><g><path d="M 3.140625 0.125 C 2.609375 0.125 2.148438 0.0351562 1.765625 -0.140625 C 1.390625 -0.316406 1.097656 -0.566406 0.890625 -0.890625 C 0.679688 -1.210938 0.570312 -1.585938 0.5625 -2.015625 L 1.390625 -2.015625 C 1.398438 -1.597656 1.566406 -1.269531 1.890625 -1.03125 C 2.210938 -0.789062 2.628906 -0.671875 3.140625 -0.671875 C 3.597656 -0.671875 3.960938 -0.757812 4.234375 -0.9375 C 4.503906 -1.113281 4.640625 -1.363281 4.640625 -1.6875 C 4.640625 -2 4.507812 -2.242188 4.25 -2.421875 C 3.988281 -2.609375 3.5625 -2.769531 2.96875 -2.90625 C 2.164062 -3.101562 1.578125 -3.351562 1.203125 -3.65625 C 0.828125 -3.957031 0.640625 -4.359375 0.640625 -4.859375 C 0.640625 -5.421875 0.847656 -5.863281 1.265625 -6.1875 C 1.691406 -6.507812 2.257812 -6.671875 2.96875 -6.671875 C 3.707031 -6.671875 4.289062 -6.484375 4.71875 -6.109375 C 5.144531 -5.742188 5.363281 -5.242188 5.375 -4.609375 L 4.5625 -4.609375 C 4.550781 -5.003906 4.40625 -5.316406 4.125 -5.546875 C 3.84375 -5.773438 3.457031 -5.890625 2.96875 -5.890625 C 2.507812 -5.890625 2.144531 -5.796875 1.875 -5.609375 C 1.613281 -5.421875 1.484375 -5.171875 1.484375 -4.859375 C 1.484375 -4.597656 1.601562 -4.375 1.84375 -4.1875 C 2.09375 -4 2.535156 -3.828125 3.171875 -3.671875 C 4.003906 -3.472656 4.597656 -3.21875 4.953125 -2.90625 C 5.316406 -2.59375 5.5 -2.195312 5.5 -1.71875 C 5.5 -1.15625 5.285156 -0.707031 4.859375 -0.375 C 4.429688 -0.0390625 3.859375 0.125 3.140625 0.125 Z M 3.140625 0.125 "/></g></g></g><g fill="#ffffff" fill-opacity="1"><g transform="translate(172.169788, 250.139282)"><g><path d="M 2.53125 0 L 2.53125 -5.765625 L 0.3125 -5.765625 L 0.3125 -6.546875 L 5.5625 -6.546875 L 5.5625 -5.765625 L 3.359375 -5.765625 L 3.359375 0 Z M 2.53125 0 "/></g></g></g><g fill="#ffffff" fill-opacity="1"><g transform="translate(179.932171, 250.139282)"><g><path d="M 1.203125 0.078125 C 1.015625 0.078125 0.863281 0.0195312 0.75 -0.09375 C 0.632812 -0.21875 0.578125 -0.367188 0.578125 -0.546875 C 0.578125 -0.722656 0.632812 -0.867188 0.75 -0.984375 C 0.863281 -1.097656 1.015625 -1.15625 1.203125 -1.15625 C 1.390625 -1.15625 1.539062 -1.097656 1.65625 -0.984375 C 1.769531 -0.867188 1.828125 -0.722656 1.828125 -0.546875 C 1.828125 -0.367188 1.769531 -0.21875 1.65625 -0.09375 C 1.539062 0.0195312 1.390625 0.078125 1.203125 0.078125 Z M 1.203125 0.078125 "/></g></g></g><g fill="#ffffff" fill-opacity="1"><g transform="translate(184.206485, 250.139282)"><g/></g></g><g fill="#ffffff" fill-opacity="1"><g transform="translate(188.396638, 250.139282)"><g><path d="M 0.671875 0 L 0.671875 -0.625 L 3.390625 -3.109375 C 3.703125 -3.398438 3.929688 -3.671875 4.078125 -3.921875 C 4.234375 -4.179688 4.3125 -4.441406 4.3125 -4.703125 C 4.3125 -5.078125 4.179688 -5.378906 3.921875 -5.609375 C 3.671875 -5.835938 3.34375 -5.953125 2.9375 -5.953125 C 2.519531 -5.953125 2.179688 -5.820312 1.921875 -5.5625 C 1.660156 -5.3125 1.523438 -4.960938 1.515625 -4.515625 L 0.75 -4.515625 C 0.757812 -4.953125 0.851562 -5.332031 1.03125 -5.65625 C 1.21875 -5.976562 1.472656 -6.226562 1.796875 -6.40625 C 2.117188 -6.582031 2.492188 -6.671875 2.921875 -6.671875 C 3.347656 -6.671875 3.722656 -6.585938 4.046875 -6.421875 C 4.378906 -6.253906 4.632812 -6.019531 4.8125 -5.71875 C 5 -5.425781 5.09375 -5.085938 5.09375 -4.703125 C 5.09375 -4.335938 4.992188 -3.96875 4.796875 -3.59375 C 4.609375 -3.226562 4.3125 -2.859375 3.90625 -2.484375 L 2.015625 -0.765625 L 5.234375 -0.765625 L 5.234375 0 Z M 0.671875 0 "/></g></g></g><g fill="#ffffff" fill-opacity="1"><g transform="translate(196.261886, 250.139282)"><g><path d="M 3.28125 0.125 C 2.738281 0.125 2.265625 -0.0078125 1.859375 -0.28125 C 1.460938 -0.5625 1.15625 -0.957031 0.9375 -1.46875 C 0.726562 -1.976562 0.625 -2.582031 0.625 -3.28125 C 0.625 -3.976562 0.726562 -4.578125 0.9375 -5.078125 C 1.15625 -5.585938 1.460938 -5.976562 1.859375 -6.25 C 2.265625 -6.53125 2.738281 -6.671875 3.28125 -6.671875 C 3.820312 -6.671875 4.289062 -6.53125 4.6875 -6.25 C 5.082031 -5.976562 5.382812 -5.585938 5.59375 -5.078125 C 5.8125 -4.578125 5.921875 -3.976562 5.921875 -3.28125 C 5.921875 -2.582031 5.8125 -1.976562 5.59375 -1.46875 C 5.382812 -0.957031 5.082031 -0.5625 4.6875 -0.28125 C 4.289062 -0.0078125 3.820312 0.125 3.28125 0.125 Z M 1.4375 -3.28125 C 1.4375 -2.46875 1.597656 -1.828125 1.921875 -1.359375 C 2.253906 -0.898438 2.707031 -0.671875 3.28125 -0.671875 C 3.84375 -0.671875 4.285156 -0.898438 4.609375 -1.359375 C 4.929688 -1.828125 5.09375 -2.46875 5.09375 -3.28125 C 5.09375 -4.082031 4.929688 -4.710938 4.609375 -5.171875 C 4.285156 -5.640625 3.84375 -5.875 3.28125 -5.875 C 2.707031 -5.875 2.253906 -5.640625 1.921875 -5.171875 C 1.597656 -4.710938 1.4375 -4.082031 1.4375 -3.28125 Z M 1.4375 -3.28125 "/></g></g></g><g fill="#ffffff" fill-opacity="1"><g transform="translate(204.669525, 250.139282)"><g><path d="M 0.671875 0 L 0.671875 -0.625 L 3.390625 -3.109375 C 3.703125 -3.398438 3.929688 -3.671875 4.078125 -3.921875 C 4.234375 -4.179688 4.3125 -4.441406 4.3125 -4.703125 C 4.3125 -5.078125 4.179688 -5.378906 3.921875 -5.609375 C 3.671875 -5.835938 3.34375 -5.953125 2.9375 -5.953125 C 2.519531 -5.953125 2.179688 -5.820312 1.921875 -5.5625 C 1.660156 -5.3125 1.523438 -4.960938 1.515625 -4.515625 L 0.75 -4.515625 C 0.757812 -4.953125 0.851562 -5.332031 1.03125 -5.65625 C 1.21875 -5.976562 1.472656 -6.226562 1.796875 -6.40625 C 2.117188 -6.582031 2.492188 -6.671875 2.921875 -6.671875 C 3.347656 -6.671875 3.722656 -6.585938 4.046875 -6.421875 C 4.378906 -6.253906 4.632812 -6.019531 4.8125 -5.71875 C 5 -5.425781 5.09375 -5.085938 5.09375 -4.703125 C 5.09375 -4.335938 4.992188 -3.96875 4.796875 -3.59375 C 4.609375 -3.226562 4.3125 -2.859375 3.90625 -2.484375 L 2.015625 -0.765625 L 5.234375 -0.765625 L 5.234375 0 Z M 0.671875 0 "/></g></g></g><g fill="#ffffff" fill-opacity="1"><g transform="translate(212.534769, 250.139282)"><g><path d="M 0.34375 -1.390625 L 0.34375 -2.015625 L 2.703125 -6.546875 L 3.640625 -6.546875 L 1.34375 -2.15625 L 3.6875 -2.15625 L 3.75 -4.234375 L 4.5 -4.234375 L 4.5 -2.171875 L 5.375 -2.171875 L 5.375 -1.390625 L 4.5 -1.390625 L 4.5 0 L 3.671875 0 L 3.671875 -1.390625 Z M 0.34375 -1.390625 "/></g></g></g></svg>